<svg width="361" height="289" viewBox="0 0 361 289" fill="none" xmlns="http://www.w3.org/2000/svg">
<path d="M339.014 268.798C345.214 261.93 374.411 228.125 353.659 222.552C338.073 218.366 336.337 241.395 336.86 256.849C334.364 246.437 329.521 234.274 321.011 239.641C308.747 247.375 331.727 264.49 337.73 268.692C337.828 269.546 337.894 270.021 337.894 270.021C337.894 270.021 338.14 269.76 338.579 269.279C338.922 269.512 339.112 269.638 339.112 269.638C339.112 269.638 339.08 269.335 339.014 268.798Z" fill="#E6E6E6"/>
<path d="M24.6842 287.6C31.7853 279.733 65.2253 241.015 41.4577 234.632C23.6067 229.837 21.618 256.213 22.2171 273.913C19.3587 261.988 13.8112 248.057 4.06473 254.204C-9.9818 263.062 16.3381 282.665 23.2133 287.478C23.3262 288.456 23.4007 289 23.4007 289C23.4007 289 23.6827 288.701 24.1854 288.15C24.5781 288.417 24.7965 288.561 24.7965 288.561C24.7965 288.561 24.76 288.214 24.6842 287.6Z" fill="#E6E6E6"/>
<path d="M102.946 23.0703C102.331 23.071 101.741 23.3093 101.306 23.7329C100.871 24.1564 100.626 24.7307 100.625 25.3297V267.085C100.626 267.684 100.871 268.258 101.306 268.682C101.741 269.105 102.331 269.344 102.946 269.344H302.984C303.599 269.344 304.189 269.105 304.624 268.682C305.059 268.258 305.304 267.684 305.305 267.085V25.3297C305.304 24.7307 305.059 24.1564 304.624 23.7329C304.189 23.3093 303.599 23.071 302.984 23.0703H102.946Z" fill="#E6E6E6"/>
<path d="M271.192 128.641H134.738C133.815 128.641 132.93 128.284 132.277 127.648C131.624 127.012 131.257 126.15 131.257 125.251C131.257 124.353 131.624 123.491 132.277 122.855C132.93 122.219 133.815 121.862 134.738 121.862H271.192C272.115 121.862 273 122.219 273.653 122.855C274.306 123.491 274.672 124.353 274.672 125.251C274.672 126.15 274.306 127.012 273.653 127.648C273 128.284 272.115 128.641 271.192 128.641Z" fill="white"/>
<path d="M272.363 65.4905H181.836C180.561 65.4905 179.527 63.9731 179.527 62.1014C179.527 60.2296 180.561 58.7123 181.836 58.7123H272.363C273.639 58.7123 274.672 60.2296 274.672 62.1014C274.672 63.9731 273.639 65.4905 272.363 65.4905Z" fill="white"/>
<path d="M272.363 84.9213H181.836C180.561 84.9213 179.527 83.4039 179.527 81.5322C179.527 79.6605 180.561 78.1431 181.836 78.1431H272.363C273.639 78.1431 274.672 79.6605 274.672 81.5322C274.672 83.4039 273.639 84.9213 272.363 84.9213Z" fill="white"/>
<path d="M271.192 150.557H134.738C133.815 150.557 132.93 150.2 132.277 149.564C131.624 148.928 131.257 148.066 131.257 147.168C131.257 146.269 131.624 145.407 132.277 144.771C132.93 144.136 133.815 143.779 134.738 143.779H271.192C272.115 143.779 273 144.136 273.653 144.771C274.306 145.407 274.672 146.269 274.672 147.168C274.672 148.066 274.306 148.928 273.653 149.564C273 150.2 272.115 150.557 271.192 150.557Z" fill="white"/>
<path d="M271.192 172.473H134.738C133.815 172.473 132.93 172.116 132.277 171.48C131.624 170.845 131.257 169.983 131.257 169.084C131.257 168.185 131.624 167.323 132.277 166.687C132.93 166.052 133.815 165.695 134.738 165.695H271.192C272.115 165.695 273 166.052 273.653 166.687C274.306 167.323 274.672 168.185 274.672 169.084C274.672 169.983 274.306 170.845 273.653 171.48C273 172.116 272.115 172.473 271.192 172.473V172.473Z" fill="white"/>
<path d="M271.192 194.389H134.738C133.815 194.389 132.93 194.032 132.277 193.396C131.624 192.761 131.257 191.899 131.257 191C131.257 190.101 131.624 189.239 132.277 188.603C132.93 187.968 133.815 187.611 134.738 187.611H271.192C272.115 187.611 273 187.968 273.653 188.603C274.306 189.239 274.672 190.101 274.672 191C274.672 191.899 274.306 192.761 273.653 193.396C273 194.032 272.115 194.389 271.192 194.389Z" fill="white"/>
<path d="M271.192 216.305H134.738C133.815 216.305 132.93 215.948 132.277 215.312C131.624 214.677 131.257 213.815 131.257 212.916C131.257 212.017 131.624 211.155 132.277 210.52C132.93 209.884 133.815 209.527 134.738 209.527H271.192C272.115 209.527 273 209.884 273.653 210.52C274.306 211.155 274.672 212.017 274.672 212.916C274.672 213.815 274.306 214.677 273.653 215.312C273 215.948 272.115 216.305 271.192 216.305Z" fill="white"/>
<path d="M271.192 238.221H134.738C133.815 238.221 132.93 237.864 132.277 237.229C131.624 236.593 131.257 235.731 131.257 234.832C131.257 233.933 131.624 233.071 132.277 232.436C132.93 231.8 133.815 231.443 134.738 231.443H271.192C272.115 231.443 273 231.8 273.653 232.436C274.306 233.071 274.672 233.933 274.672 234.832C274.672 235.731 274.306 236.593 273.653 237.229C273 237.864 272.115 238.221 271.192 238.221Z" fill="white"/>
<path d="M149.59 89.892C159.715 89.892 167.923 81.9006 167.923 72.0428C167.923 62.1849 159.715 54.1935 149.59 54.1935C139.465 54.1935 131.257 62.1849 131.257 72.0428C131.257 81.9006 139.465 89.892 149.59 89.892Z" fill="white"/>
<path d="M135.715 134.644L108.377 148.795L108.031 137.002C116.954 135.552 125.443 133.027 133.293 128.916L136.152 122.038C136.464 121.289 136.97 120.631 137.621 120.13C138.273 119.629 139.047 119.301 139.868 119.179C140.689 119.057 141.528 119.145 142.304 119.434C143.079 119.723 143.764 120.204 144.291 120.828V120.828C145.062 121.742 145.448 122.908 145.369 124.088C145.291 125.269 144.755 126.376 143.869 127.186L135.715 134.644Z" fill="#FFB8B8"/>
<path d="M68.9163 216.346C68.7169 215.633 68.6746 214.888 68.7921 214.159C68.9096 213.43 69.1844 212.733 69.5983 212.115L75.6037 203.141C77.0242 201.019 79.2037 199.486 81.7195 198.84C84.2353 198.193 86.9079 198.48 89.2189 199.644V199.644C86.695 203.827 87.0468 207.496 90.0905 210.685C85.3655 212.931 80.9984 215.83 77.1247 219.291C76.4175 219.76 75.6053 220.059 74.7559 220.16C73.9064 220.262 73.0442 220.165 72.2412 219.877C71.4381 219.589 70.7174 219.118 70.139 218.504C69.5607 217.889 69.1415 217.15 68.9163 216.346V216.346Z" fill="#2F2E41"/>
<path d="M136.96 204.613C136.052 206.087 134.769 207.31 133.235 208.163C131.701 209.016 129.968 209.471 128.202 209.484L88.3054 209.778L86.5751 200.007L104.224 194.953L89.3436 183.835L105.608 165.304L135.15 192.111C136.877 193.678 137.998 195.775 138.328 198.05C138.657 200.326 138.175 202.642 136.96 204.613V204.613Z" fill="#2F2E41"/>
<path d="M82.0764 271.435H72.7329C64.3438 215.448 55.8044 159.305 81.0382 138.35L110.799 143.067L106.992 167.662L90.3817 186.193L82.0764 271.435Z" fill="#2F2E41"/>
<path d="M89.3616 288.637C88.6301 288.831 87.8647 288.872 87.1157 288.758C86.3667 288.643 85.6511 288.376 85.0158 287.973L75.799 282.127C73.619 280.744 72.0443 278.622 71.3804 276.172C70.7165 273.723 71.0108 271.121 72.2062 268.871V268.871C76.5025 271.328 80.2713 270.985 83.5464 268.022C85.8534 272.622 88.8308 276.873 92.3864 280.645C92.8686 281.333 93.1748 282.124 93.2795 282.951C93.3842 283.778 93.2845 284.617 92.9885 285.399C92.6926 286.181 92.209 286.883 91.5781 287.446C90.9472 288.009 90.1873 288.417 89.3616 288.637Z" fill="#2F2E41"/>
<path d="M122.86 99.4379H78.4428C70.24 88.1394 69.2772 77.3349 78.4428 67.2217C78.4428 62.7497 84.3755 59.1245 91.6939 59.1245H91.6939C97.4266 59.1245 102.509 61.3771 104.29 64.7069L122.86 99.4379Z" fill="#2F2E41"/>
<path d="M104.224 100.951L86.9211 96.9082C89.7949 91.1811 90.0315 84.8086 88.6514 78.0404L100.417 77.7035C100.786 86.1199 101.901 93.983 104.224 100.951Z" fill="#FFB8B8"/>
<path d="M108.979 153.211C96.3836 161.568 87.4838 153.497 80.6922 141.045C81.6359 133.426 80.1078 124.307 77.2777 114.4C76.0191 110.03 76.489 105.359 78.5947 101.31C80.7003 97.2606 84.2887 94.1272 88.6514 92.5282V92.5282L103.532 98.5928C116.167 108.62 118.654 119.482 113.914 130.938L108.979 153.211Z" fill="#6C63FF"/>
<path d="M72.7329 109.374L58.8906 116.45L83.4606 130.601L86.8794 138.811C87.1076 139.359 87.2187 139.947 87.2061 140.538C87.1934 141.129 87.0573 141.711 86.8058 142.25C86.5544 142.788 86.1931 143.271 85.7437 143.669C85.2944 144.067 84.7666 144.371 84.1924 144.564V144.564C83.5397 144.783 82.8438 144.852 82.1592 144.766C81.4745 144.679 80.8197 144.44 80.246 144.066C79.6723 143.692 79.1953 143.193 78.8524 142.61C78.5095 142.027 78.31 141.374 78.2694 140.703L77.9237 134.981L46.6955 124.947C45.6434 124.609 44.684 124.043 43.8901 123.29C43.0963 122.538 42.4887 121.619 42.1134 120.604V120.604C41.5663 119.125 41.5385 117.51 42.0342 116.014C42.5299 114.517 43.5212 113.223 44.8529 112.334L69.9644 95.5605L72.7329 109.374Z" fill="#FFB8B8"/>
<path d="M86.5751 110.722C80.802 108.259 75.5524 110.935 68.9262 113.081L67.8881 95.2236C74.4676 91.8093 80.7407 90.8888 86.5751 93.539V110.722Z" fill="#6C63FF"/>
<path d="M122.046 99.4379H112.249C106.152 88.4863 106.428 69.1369 93.3233 73.4494C84.9037 68.5842 89.7347 87.6766 87.641 99.4379H79.1211C76.806 87.9465 76.7738 76.4315 79.4973 67.0674C79.5232 66.454 79.6817 65.8528 79.9626 65.3031C80.2434 64.7534 80.6403 64.2676 81.1272 63.8775C81.5497 63.5 82.0073 63.1615 82.4941 62.8663C85.5048 61.0197 87.5268 59.9678 91.9252 59.9678C94.3868 59.9625 96.8373 60.2905 99.2062 60.9425C99.5142 61.0304 99.8187 61.1246 100.113 61.2232C100.518 61.3582 100.909 61.506 101.283 61.6645C103.207 62.47 104.719 63.5605 105.435 64.9251C113.727 74.5527 117.959 86.6997 122.046 99.4379Z" fill="#2F2E41"/>
<path d="M93.481 86.5487C99.5822 86.5487 104.528 81.7332 104.528 75.793C104.528 69.8528 99.5822 65.0374 93.481 65.0374C87.3798 65.0374 82.4338 69.8528 82.4338 75.793C82.4338 81.7332 87.3798 86.5487 93.481 86.5487Z" fill="#FFB8B8"/>
<path d="M104.686 71.6444C101.363 67.234 92.6954 72.495 82.2761 76.2539V65.8056C90.8472 62.1319 95.8453 61.0723 101.53 64.8837L104.686 71.6444Z" fill="#2F2E41"/>
<path d="M298.965 52.1096C313.745 52.1096 325.726 40.4445 325.726 26.0548C325.726 11.6651 313.745 0 298.965 0C284.186 0 272.204 11.6651 272.204 26.0548C272.204 40.4445 284.186 52.1096 298.965 52.1096Z" fill="#6C63FF"/>
<path d="M287.815 24.3355C287.347 24.3355 286.898 24.5166 286.566 24.8391C286.235 25.1615 286.049 25.5989 286.049 26.0549C286.049 26.5109 286.235 26.9482 286.566 27.2706C286.898 27.5931 287.347 27.7742 287.815 27.7742H297.2V36.9109C297.2 37.3669 297.386 37.8042 297.717 38.1266C298.048 38.449 298.497 38.6301 298.966 38.6301C299.434 38.6301 299.883 38.449 300.214 38.1266C300.545 37.8042 300.731 37.3669 300.731 36.9109V27.7742H310.116C310.584 27.7742 311.033 27.5931 311.365 27.2706C311.696 26.9482 311.882 26.5109 311.882 26.0549C311.882 25.5989 311.696 25.1615 311.365 24.8391C311.033 24.5167 310.584 24.3355 310.116 24.3355H300.731V15.1986C300.731 14.7427 300.545 14.3054 300.214 13.9829C299.883 13.6605 299.434 13.4794 298.966 13.4794C298.497 13.4794 298.048 13.6605 297.717 13.9829C297.386 14.3054 297.2 14.7427 297.2 15.1986V24.3355H287.815Z" fill="white"/>
</svg>
