<svg width="420" height="273" viewBox="0 0 420 273" fill="none" xmlns="http://www.w3.org/2000/svg">
<path d="M420 272.245H241.332V273H420V272.245Z" fill="#3F3D56"/>
<path d="M406.333 261.295H227.664V262.05H406.333V261.295Z" fill="#3F3D56"/>
<path d="M349.711 250.344H171.043V251.1H349.711V250.344Z" fill="#3F3D56"/>
<path d="M128.571 217.334C127.487 217.334 126.393 217.317 125.318 217.285L125.343 216.53C126.885 216.577 128.46 216.59 130.009 216.569L130.02 217.324C129.538 217.331 129.054 217.334 128.571 217.334ZM134.719 217.159L134.673 216.405C136.218 216.317 137.783 216.193 139.324 216.037L139.405 216.788C137.852 216.945 136.276 217.07 134.719 217.159H134.719ZM120.624 217.041C119.066 216.926 117.492 216.774 115.945 216.591L116.04 215.842C117.575 216.023 119.137 216.174 120.683 216.288L120.624 217.041ZM144.069 216.211L143.952 215.464C145.486 215.239 147.033 214.978 148.547 214.687L148.7 215.427C147.173 215.72 145.615 215.984 144.069 216.211V216.211ZM111.293 215.934C109.754 215.682 108.2 215.392 106.676 215.072L106.841 214.334C108.354 214.652 109.896 214.94 111.423 215.19L111.293 215.934ZM153.289 214.438L153.102 213.705C154.608 213.345 156.124 212.947 157.605 212.522L157.827 213.246C156.334 213.674 154.808 214.076 153.289 214.438V214.438ZM102.105 214.006C100.596 213.617 99.0766 213.19 97.5901 212.736L97.8254 212.016C99.3006 212.467 100.808 212.89 102.306 213.275L102.105 214.006ZM162.303 211.853L162.047 211.14C163.509 210.648 164.979 210.117 166.418 209.56L166.708 210.261C165.258 210.822 163.776 211.358 162.303 211.853V211.853ZM93.1288 211.261C91.6627 210.74 90.1875 210.178 88.7445 209.59L89.0477 208.894C90.4796 209.477 91.9434 210.035 93.3984 210.553L93.1288 211.261ZM171.022 208.479L170.699 207.792C172.103 207.175 173.514 206.516 174.894 205.835L175.249 206.507C173.859 207.194 172.437 207.858 171.022 208.479V208.479ZM179.378 204.349L178.991 203.693C180.338 202.95 181.682 202.169 182.986 201.372L183.403 202.01C182.089 202.813 180.735 203.601 179.378 204.349V204.349ZM187.314 199.494L186.867 198.875C188.135 198.019 189.4 197.122 190.628 196.209L191.104 196.808C189.867 197.727 188.592 198.631 187.314 199.494V199.494ZM68.282 198.431C67.0215 197.545 65.7623 196.618 64.5391 195.673L65.0265 195.083C66.2403 196.02 67.4899 196.941 68.7407 197.819L68.282 198.431ZM194.764 193.958L194.26 193.38C195.442 192.416 196.618 191.411 197.756 190.393L198.286 190.948C197.14 191.973 195.955 192.986 194.764 193.958V193.958ZM60.9309 192.755C59.7569 191.761 58.5906 190.727 57.4645 189.681L58.0053 189.136C59.123 190.174 60.2803 191.2 61.4453 192.187L60.9309 192.755ZM201.665 187.785L201.109 187.255C202.198 186.188 203.276 185.083 204.311 183.972L204.892 184.477C203.848 185.597 202.763 186.71 201.665 187.785V187.785ZM54.1472 186.459C53.0701 185.364 52.0064 184.232 50.9855 183.095L51.5755 182.6C52.5885 183.729 53.6441 184.852 54.7131 185.939L54.1472 186.459ZM207.96 181.03L207.356 180.55C208.34 179.392 209.309 178.197 210.237 176.997L210.863 177.449C209.928 178.658 208.951 179.863 207.96 181.03ZM47.9861 179.596C47.0188 178.414 46.0664 177.194 45.1552 175.969L45.789 175.528C46.6933 176.743 47.6385 177.954 48.5985 179.128L47.9861 179.596ZM213.594 173.744L212.948 173.32C213.819 172.08 214.672 170.804 215.483 169.526L216.149 169.922C215.331 171.209 214.471 172.495 213.594 173.744ZM42.4992 172.223C41.6482 170.961 40.8154 169.663 40.0235 168.364L40.6962 167.98C41.4821 169.27 42.3087 170.558 43.1532 171.81L42.4992 172.223ZM218.52 165.989L217.837 165.623C218.586 164.311 219.315 162.964 220.002 161.619L220.702 161.953C220.01 163.309 219.275 164.667 218.52 165.989ZM222.691 157.825L221.975 157.521C222.598 156.147 223.195 154.74 223.752 153.338L224.481 153.609C223.92 155.021 223.318 156.44 222.691 157.825ZM33.7305 156.195C33.1317 154.806 32.5584 153.384 32.0264 151.97L32.7605 151.712C33.2883 153.115 33.8573 154.526 34.4512 155.904L33.7305 156.195ZM226.068 149.317L225.327 149.079C225.814 147.659 226.274 146.208 226.693 144.765L227.445 144.969C227.022 146.423 226.559 147.886 226.068 149.317V149.317ZM30.522 147.662C30.0574 146.223 29.6207 144.753 29.2243 143.292L29.9798 143.1C30.3731 144.55 30.8065 146.009 31.2676 147.437L30.522 147.662ZM228.613 140.565L227.853 140.394C228.202 138.939 228.522 137.452 228.803 135.977L229.571 136.113C229.288 137.6 228.966 139.098 228.613 140.565V140.565ZM28.1368 138.868C27.8111 137.393 27.5163 135.891 27.2608 134.401L28.0311 134.277C28.2849 135.756 28.5774 137.247 28.9006 138.71L28.1368 138.868ZM230.315 131.625L229.541 131.522C229.751 130.043 229.929 128.535 230.068 127.039L230.846 127.107C230.705 128.615 230.526 130.134 230.315 131.625H230.315ZM26.5977 129.9C26.4135 128.405 26.2623 126.883 26.1481 125.375L26.9272 125.32C27.0402 126.817 27.1905 128.327 27.3733 129.811L26.5977 129.9ZM231.164 122.572L230.384 122.538C230.454 121.041 230.489 119.524 230.489 118.027H231.27C231.27 119.535 231.235 121.064 231.164 122.572V122.572ZM25.9115 120.834C25.8848 119.908 25.8712 118.963 25.871 118.027C25.871 117.446 25.8762 116.866 25.8865 116.287L26.6675 116.3C26.6572 116.874 26.652 117.45 26.652 118.027C26.6522 118.956 26.6657 119.894 26.6921 120.813L25.9115 120.834ZM26.8528 111.792L26.0733 111.744C26.1708 110.235 26.3054 108.711 26.473 107.214L27.2494 107.296C27.0829 108.781 26.9496 110.294 26.8528 111.792H26.8528ZM229.985 107.184C229.829 105.695 229.614 104.97 229.388 103.487L230.16 103.377C230.388 104.871 230.584 106.011 230.742 107.511L229.985 107.184ZM27.8574 102.823L27.0856 102.707C27.3249 101.213 27.6029 99.7074 27.912 98.2312L28.6773 98.3809C28.3707 99.8459 28.0948 101.34 27.8574 102.823H27.8574ZM228.6 99.0407C228.302 97.5676 227.966 96.0847 227.6 94.6333L228.359 94.4549C228.727 95.9173 229.066 97.4116 229.366 98.8958L228.6 99.0407ZM29.7073 93.9805L28.9498 93.7968C29.329 92.3342 29.7491 90.8594 30.1983 89.4132L30.9461 89.6304C30.5005 91.0656 30.0837 92.5291 29.7073 93.9805ZM226.392 90.275C225.957 88.8371 225.481 87.3907 224.978 85.9754L225.716 85.7298C226.223 87.1559 226.703 88.6138 227.142 90.0626L226.392 90.275ZM32.3958 85.3285L31.659 85.0781C32.178 83.6505 32.7384 82.2161 33.3245 80.8147L34.0487 81.0979C33.4669 82.4884 32.9108 83.9119 32.3958 85.3285V85.3285ZM223.36 81.7433C222.79 80.3536 222.18 78.9588 221.546 77.5976L222.258 77.2874C222.897 78.6592 223.512 80.0647 224.086 81.465L223.36 81.7433ZM35.901 76.9469L35.1914 76.6316C35.8436 75.2581 36.5379 73.8806 37.2548 72.5376L37.9488 72.8839C37.2373 74.2167 36.5484 75.5837 35.901 76.9469ZM219.537 73.5351C218.838 72.2019 218.098 70.866 217.336 69.5649L218.016 69.1928C218.783 70.504 219.529 71.8501 220.234 73.1937L219.537 73.5351ZM40.1875 68.9173L39.5106 68.5405C40.2897 67.2324 41.1113 65.923 41.9527 64.649L42.6109 65.0553C41.776 66.3197 40.9605 67.6192 40.1875 68.9173ZM214.949 65.6945C214.124 64.4242 213.26 63.1587 212.381 61.933L213.022 61.5026C213.908 62.7378 214.779 64.0129 215.61 65.293L214.949 65.6945ZM45.2143 61.3056L44.576 60.8704C45.4763 59.6357 46.4176 58.405 47.3744 57.2125L47.9914 57.6753C47.0421 58.8589 46.1076 60.0802 45.2143 61.3056ZM209.637 58.2878C208.696 57.0958 207.715 55.9108 206.723 54.7659L207.322 54.2808C208.321 55.4346 209.309 56.6284 210.257 57.8294L209.637 58.2878ZM50.9363 54.1724L50.3418 53.6827C51.3522 52.5352 52.4053 51.393 53.4717 50.2879L54.0425 50.803C52.9843 51.8998 51.9393 53.0335 50.9363 54.1724ZM203.646 51.3751C202.597 50.2709 201.509 49.1765 200.412 48.1226L200.963 47.5868C202.068 48.649 203.164 49.7515 204.221 50.864L203.646 51.3751ZM57.3032 47.575L56.7571 47.0352C57.8739 45.9787 59.0295 44.9342 60.1917 43.9309L60.7118 44.4943C59.5584 45.49 58.4116 46.5265 57.3032 47.575V47.575ZM197.028 45.015C195.879 44.0067 194.692 43.0122 193.5 42.0592L193.998 41.4773C195.198 42.4375 196.395 43.4396 197.553 44.4556L197.028 45.015ZM64.2611 41.5669L63.7681 40.9813C64.976 40.0302 66.2243 39.0921 67.4785 38.1931L67.9438 38.7996C66.6989 39.692 65.4599 40.6229 64.2611 41.5669V41.5669ZM71.7516 36.1985L71.3157 35.5721C72.6085 34.7309 73.9393 33.9074 75.2716 33.1236L75.6773 33.7689C74.3554 34.5466 73.0346 35.3641 71.7516 36.1985ZM79.7128 31.5159L79.338 30.8532C80.7056 30.1296 82.108 29.4275 83.506 28.7662L83.8492 29.4446C82.4619 30.1008 81.0702 30.7976 79.7129 31.5159H79.7128ZM173.966 29.7662C172.576 29.0967 171.153 28.45 169.735 27.8439L170.051 27.1533C171.48 27.7639 172.914 28.4157 174.315 29.0903L173.966 29.7662ZM88.0779 27.5594L87.7675 26.8666C89.1968 26.2675 90.6588 25.693 92.1129 25.1589L92.3901 25.865C90.9471 26.3949 89.4963 26.965 88.0779 27.5594H88.0779ZM165.416 26.1116C163.97 25.5693 162.49 25.052 161.017 24.5741L161.265 23.858C162.749 24.3398 164.241 24.861 165.698 25.4076L165.416 26.1116ZM96.7893 24.3608L96.546 23.6432C98.0302 23.1727 99.5445 22.7296 101.047 22.3268L101.255 23.0543C99.7647 23.4542 98.262 23.8938 96.7893 24.3608ZM156.559 23.2379C155.07 22.8274 153.551 22.445 152.044 22.1015L152.223 21.3666C153.742 21.7126 155.272 22.098 156.774 22.5115L156.559 23.2379ZM105.779 21.9483L105.605 21.2121C107.127 20.876 108.677 20.5697 110.212 20.302L110.351 21.045C108.827 21.3109 107.289 21.6147 105.779 21.9483V21.9483ZM147.479 21.1678C145.958 20.8918 144.409 20.6462 142.875 20.4379L142.983 19.6901C144.529 19.9001 146.09 20.1475 147.623 20.4255L147.479 21.1678ZM114.961 20.3461L114.857 19.5975C116.403 19.398 117.975 19.2303 119.53 19.0994L119.598 19.8516C118.055 19.9818 116.495 20.1481 114.961 20.3461V20.3461ZM138.24 19.9128C136.702 19.7727 135.136 19.6646 133.586 19.5922L133.624 18.8377C135.186 18.9109 136.763 19.0197 138.313 19.161L138.24 19.9128ZM124.255 19.5619L124.222 18.8075C125.657 18.7496 127.12 18.7201 128.571 18.7197L128.924 18.7203L128.922 19.4755L128.571 19.4749C127.131 19.4753 125.679 19.5046 124.255 19.5619V19.5619Z" fill="#3F3D56"/>
<path d="M303.983 88.1158L302.031 100.954C302.031 100.954 293.44 117.568 298.907 134.56L305.936 130.406C305.936 130.406 311.403 110.016 311.403 108.506C311.403 106.995 313.746 89.2486 313.746 89.2486L303.983 88.1158Z" fill="#FFB9B9"/>
<path d="M307.888 129.273L298.516 135.315L303.202 157.593C303.202 157.593 304.374 187.8 303.983 188.933C303.593 190.066 296.564 236.132 296.564 236.132C296.564 236.132 304.764 239.908 312.183 237.643C312.183 237.643 319.603 203.659 319.603 193.842L328.194 159.481L341.47 198.751C341.47 198.751 342.251 225.182 343.813 233.867C345.375 242.552 345.375 243.684 345.375 243.684C345.375 243.684 357.871 247.083 360.995 243.684C360.995 243.684 359.433 199.128 358.262 194.597L355.528 140.601L307.888 129.273Z" fill="#2F2E41"/>
<path d="M299.688 236.132C299.688 236.132 298.907 235 296.564 238.02C294.221 241.041 286.801 246.705 286.801 246.705C286.801 246.705 266.496 260.676 281.725 261.431C296.954 262.186 299.688 254.634 299.688 254.634C299.688 254.634 312.574 252.369 312.964 249.726C313.355 247.083 311.402 236.51 311.402 236.51L299.688 236.132Z" fill="#2F2E41"/>
<path d="M346.156 242.929C346.156 242.929 343.423 251.991 344.204 255.767C344.985 259.543 342.642 273.514 353.576 272.381C364.51 271.249 360.995 259.166 360.995 259.166L357.481 243.684L346.156 242.929Z" fill="#2F2E41"/>
<path d="M330.732 45.259C337.849 45.259 343.618 39.6802 343.618 32.7984C343.618 25.9166 337.849 20.3378 330.732 20.3378C323.615 20.3378 317.846 25.9166 317.846 32.7984C317.846 39.6802 323.615 45.259 330.732 45.259Z" fill="#FFB9B9"/>
<path d="M323.117 39.4063C323.117 39.4063 327.022 52.6221 323.898 57.5308C320.774 62.4395 344.985 58.286 346.547 53.7548C346.547 53.7548 338.737 45.4478 339.908 37.5183L323.117 39.4063Z" fill="#FFB9B9"/>
<path d="M329.365 57.1532C329.365 57.1532 340.055 57.852 345.253 52.2163L364.509 60.1739L356.309 103.975C356.309 103.975 372.71 140.979 357.871 144.377C343.032 147.776 300.078 144.377 302.031 131.917C303.983 119.456 311.793 104.352 311.793 104.352C311.793 104.352 313.745 87.7382 309.45 80.1864C305.155 72.6345 307.888 63.9499 307.888 63.9499L325.077 52.9374C325.077 52.9374 325.851 57.1532 329.365 57.1532Z" fill="#575A89"/>
<path d="M312.574 64.3274H307.888C307.888 64.3274 302.421 65.4602 303.593 79.8088L300.859 90.0038C300.859 90.0038 314.527 93.4021 316.479 91.5142C318.431 89.6262 312.574 64.3274 312.574 64.3274Z" fill="#575A89"/>
<path d="M369.195 86.983L367.633 100.199C367.633 100.199 369.586 117.568 362.948 131.161L360.605 137.958C360.605 137.958 358.262 157.593 352.014 157.593C345.766 157.593 352.014 135.315 352.014 135.315L355.138 113.037C355.138 113.037 357.481 104.352 355.919 100.576C354.357 96.8005 353.966 88.871 353.966 88.871L369.195 86.983Z" fill="#FFB9B9"/>
<path d="M327.566 24.645C329.478 24.3557 331.406 24.1709 333.34 24.0914C334.741 24.0338 336.201 24.043 337.467 24.6261C339.377 25.5053 340.446 27.4928 341.147 29.4222C341.847 31.3516 342.344 33.4135 343.643 35.0269C345.805 32.8451 346.237 29.6014 346.558 26.5959C346.785 24.482 346.985 22.228 345.975 20.3409C345.352 19.1786 344.325 18.2728 343.284 17.4354C338.317 13.438 332.009 10.2926 325.614 11.1904L325.464 12.1451C324.373 12.1134 323.281 12.1798 322.202 12.3434L322.431 14.712L319.034 14.9204L318.903 17.3889L315.468 17.5041C315.534 18.4527 315.961 19.3441 316.666 20.0065C316.138 20.3757 315.538 20.6379 314.902 20.7772C315.475 22.9215 316.031 25.0708 316.623 27.2103C317.059 28.7864 316.981 30.1789 318.729 29.4098C320.06 28.8241 320.961 26.9618 322.306 26.1924C323.892 25.2859 325.768 24.9169 327.566 24.645Z" fill="#2F2E41"/>
<path d="M359.043 60.5515H364.509C364.509 60.5515 373.491 89.6262 371.929 90.0038C370.367 90.3814 352.014 91.5142 352.014 91.5142L359.043 60.5515Z" fill="#575A89"/>
<path d="M126.504 146.832C143.973 146.832 158.134 133.138 158.134 116.247C158.134 99.3549 143.973 85.6615 126.504 85.6615C109.036 85.6615 94.8745 99.3549 94.8745 116.247C94.8745 133.138 109.036 146.832 126.504 146.832Z" fill="#6C63FF"/>
<path d="M146.419 113.226H129.628V96.9894H123.38V113.226H106.589V119.267H123.38V135.504H129.628V119.267H146.419V113.226Z" fill="white"/>
<path d="M70.9764 167.912H27.9626V216.37H70.9764V167.912Z" fill="#F2F2F2"/>
<path d="M87.6808 216.774H27.545V158.624H87.6808V216.774ZM28.3802 215.966H86.8456V159.432H28.3802V215.966Z" fill="#3F3D56"/>
<path d="M76.8229 175.584H40.0732V176.392H76.8229V175.584Z" fill="#3F3D56"/>
<path d="M76.8229 184.468H40.0732V185.276H76.8229V184.468Z" fill="#3F3D56"/>
<path d="M76.8229 193.352H40.0732V194.16H76.8229V193.352Z" fill="#3F3D56"/>
<path d="M174.469 8.62218H87.7795V50.2199H174.469V8.62218Z" fill="#F2F2F2"/>
<path d="M192.041 50.5975H87.389V0H192.041V50.5975ZM88.17 49.8423H191.26V0.755187H88.17V49.8423Z" fill="#3F3D56"/>
<path d="M159.228 21.1139H103.021V21.8691H159.228V21.1139Z" fill="#3F3D56"/>
<path d="M159.228 29.0433H103.021V29.7985H159.228V29.0433Z" fill="#3F3D56"/>
<path d="M159.228 36.9728H103.021V37.728H159.228V36.9728Z" fill="#3F3D56"/>
<path d="M244.043 113.603H206.946V151.74H244.043V113.603Z" fill="#F2F2F2"/>
<path d="M253.414 152.118H206.555V106.807H253.414V152.118ZM207.336 151.363H252.633V107.562H207.336V151.363Z" fill="#3F3D56"/>
<path d="M238.38 127.386H212.608V128.141H238.38V127.386Z" fill="#3F3D56"/>
<path d="M238.38 132.294H212.608V133.049H238.38V132.294Z" fill="#3F3D56"/>
<path d="M238.38 137.203H212.608V137.958H238.38V137.203Z" fill="#3F3D56"/>
<path d="M229.049 49.8423H50.3807V50.5975H229.049V49.8423Z" fill="#3F3D56"/>
<path d="M278.992 151.363H180.978V152.118H278.992V151.363Z" fill="#3F3D56"/>
<path d="M115.226 216.309H0V217.064H115.226V216.309Z" fill="#3F3D56"/>
</svg>
