<svg width="420" height="273" viewBox="0 0 420 273" fill="none" xmlns="http://www.w3.org/2000/svg">
<g clip-path="url(#clip0)">
<path d="M0 272.685H71.1429" stroke="#3F3D56" stroke-miterlimit="10"/>
<path d="M411.687 13.8199H112.456C107.865 13.8199 104.143 17.4844 104.143 22.0047V216.187C104.143 220.707 107.865 224.372 112.456 224.372H411.687C416.278 224.372 420 220.707 420 216.187V22.0047C420 17.4844 416.278 13.8199 411.687 13.8199Z" fill="#F2F2F2"/>
<path d="M402.044 0.52861H102.813C98.222 0.52861 94.5 4.19306 94.5 8.7134V202.896C94.5 207.416 98.222 211.08 102.813 211.08H402.044C406.635 211.08 410.357 207.416 410.357 202.896V8.7134C410.357 4.19306 406.635 0.52861 402.044 0.52861Z" stroke="#3F3D56" stroke-miterlimit="10"/>
<path d="M94.5 20.7147H410.357" stroke="#3F3D56" stroke-miterlimit="10"/>
<path opacity="0.3" d="M366.389 68.0402H286.325C284.647 68.0402 283.286 69.3801 283.286 71.0329V78.1279C283.286 79.7807 284.647 81.1206 286.325 81.1206H366.389C368.068 81.1206 369.429 79.7807 369.429 78.1279V71.0329C369.429 69.3801 368.068 68.0402 366.389 68.0402Z" fill="#6C63FF"/>
<path opacity="0.3" d="M382.889 104.328H269.825C268.147 104.328 266.786 105.668 266.786 107.32V111.884C266.786 113.536 268.147 114.876 269.825 114.876H382.889C384.568 114.876 385.929 113.536 385.929 111.884V107.32C385.929 105.668 384.568 104.328 382.889 104.328Z" fill="#6C63FF"/>
<path opacity="0.3" d="M382.889 133.02H269.825C268.147 133.02 266.786 134.36 266.786 136.013V140.576C266.786 142.229 268.147 143.569 269.825 143.569H382.889C384.568 143.569 385.929 142.229 385.929 140.576V136.013C385.929 134.36 384.568 133.02 382.889 133.02Z" fill="#6C63FF"/>
<path opacity="0.3" d="M382.889 161.713H269.825C268.147 161.713 266.786 163.052 266.786 164.705V169.269C266.786 170.921 268.147 172.261 269.825 172.261H382.889C384.568 172.261 385.929 170.921 385.929 169.269V164.705C385.929 163.052 384.568 161.713 382.889 161.713Z" fill="#6C63FF"/>
<path d="M370.675 63.8207H290.611C288.932 63.8207 287.571 65.1606 287.571 66.8134V73.9084C287.571 75.5612 288.932 76.9011 290.611 76.9011H370.675C372.353 76.9011 373.714 75.5612 373.714 73.9084V66.8134C373.714 65.1606 372.353 63.8207 370.675 63.8207Z" stroke="#3F3D56" stroke-miterlimit="10"/>
<path d="M387.175 100.108H274.111C272.432 100.108 271.071 101.448 271.071 103.101V107.664C271.071 109.317 272.432 110.657 274.111 110.657H387.175C388.853 110.657 390.214 109.317 390.214 107.664V103.101C390.214 101.448 388.853 100.108 387.175 100.108Z" stroke="#3F3D56" stroke-miterlimit="10"/>
<path d="M387.175 128.801H274.111C272.432 128.801 271.071 130.14 271.071 131.793V136.357C271.071 138.009 272.432 139.349 274.111 139.349H387.175C388.853 139.349 390.214 138.009 390.214 136.357V131.793C390.214 130.14 388.853 128.801 387.175 128.801Z" stroke="#3F3D56" stroke-miterlimit="10"/>
<path d="M387.175 157.493H274.111C272.432 157.493 271.071 158.833 271.071 160.486V165.049C271.071 166.702 272.432 168.042 274.111 168.042H387.175C388.853 168.042 390.214 166.702 390.214 165.049V160.486C390.214 158.833 388.853 157.493 387.175 157.493Z" stroke="#3F3D56" stroke-miterlimit="10"/>
<path opacity="0.3" d="M118.5 19.5162C122.05 19.5162 124.929 16.6826 124.929 13.187C124.929 9.6915 122.05 6.85782 118.5 6.85782C114.95 6.85782 112.071 9.6915 112.071 13.187C112.071 16.6826 114.95 19.5162 118.5 19.5162Z" fill="#6C63FF"/>
<path opacity="0.3" d="M136.5 19.5162C140.05 19.5162 142.929 16.6826 142.929 13.187C142.929 9.6915 140.05 6.85782 136.5 6.85782C132.95 6.85782 130.071 9.6915 130.071 13.187C130.071 16.6826 132.95 19.5162 136.5 19.5162Z" fill="#6C63FF"/>
<path opacity="0.3" d="M154.5 19.5162C158.05 19.5162 160.929 16.6826 160.929 13.187C160.929 9.6915 158.05 6.85782 154.5 6.85782C150.95 6.85782 148.071 9.6915 148.071 13.187C148.071 16.6826 150.95 19.5162 154.5 19.5162Z" fill="#6C63FF"/>
<path d="M121.071 16.9846C124.622 16.9846 127.5 14.1509 127.5 10.6553C127.5 7.15982 124.622 4.32613 121.071 4.32613C117.521 4.32613 114.643 7.15982 114.643 10.6553C114.643 14.1509 117.521 16.9846 121.071 16.9846Z" stroke="#3F3D56" stroke-miterlimit="10"/>
<path d="M139.071 16.9846C142.622 16.9846 145.5 14.1509 145.5 10.6553C145.5 7.15982 142.622 4.32613 139.071 4.32613C135.521 4.32613 132.643 7.15982 132.643 10.6553C132.643 14.1509 135.521 16.9846 139.071 16.9846Z" stroke="#3F3D56" stroke-miterlimit="10"/>
<path d="M157.071 16.9846C160.622 16.9846 163.5 14.1509 163.5 10.6553C163.5 7.15982 160.622 4.32613 157.071 4.32613C153.521 4.32613 150.643 7.15982 150.643 10.6553C150.643 14.1509 153.521 16.9846 157.071 16.9846Z" stroke="#3F3D56" stroke-miterlimit="10"/>
<path d="M194.295 202.219C193.218 197.338 192.933 190.671 193.295 186.033C193.295 186.033 187.853 162.494 183.571 160.298L183.569 160.3C183.504 160.383 181.426 163.065 181.162 171.365C180.894 179.797 177.862 185.33 177.862 185.33C177.862 185.33 178.843 195.84 178.282 202.219L194.295 202.219Z" fill="#6C63FF"/>
<path d="M233.884 52.4281H135.116C133.779 52.4281 132.454 52.6876 131.218 53.1917C129.982 53.6957 128.859 54.4346 127.913 55.366C126.967 56.2974 126.216 57.4031 125.704 58.6201C125.192 59.837 124.929 61.1413 124.929 62.4585V192.189C124.929 193.506 125.192 194.811 125.704 196.028C126.216 197.245 126.967 198.35 127.913 199.282C128.859 200.213 129.982 200.952 131.218 201.456C132.454 201.96 133.779 202.219 135.116 202.219H169.769C168.611 197.494 167.173 190.114 168.63 184.982L168.629 184.979L168.63 184.981C168.698 184.741 168.77 184.505 168.851 184.276C169.852 180.946 170.186 177.455 169.833 174C170.477 171.047 170.477 167.994 169.833 165.041C168.763 160.123 168.014 155.292 168.014 155.292C168.014 155.292 167.423 148.793 167.939 144.809C167.95 144.721 167.963 144.638 167.976 144.553C167.794 144.513 167.692 144.489 167.692 144.489C167.692 144.489 169.209 137.726 169.744 133.423C169.87 132.407 170.036 131.119 170.216 129.745C169.722 129.665 169.236 129.543 168.762 129.382C163.945 127.714 162.429 112.607 162.429 112.607V107.82C162.429 107.82 160.823 100.486 166.443 97.2365C171.855 94.1072 174.016 93.2508 174.168 93.1916C174.21 93.1626 174.25 93.1362 174.292 93.1041C174.904 92.6315 175.388 92.018 175.702 91.3177C175.709 91.1971 175.711 91.0773 175.707 90.9582C175.616 89.2423 174.403 87.6817 173.251 86.32C172.269 85.1587 171.287 83.9973 170.306 82.8359C169.969 82.4899 169.711 82.078 169.547 81.6271C169.485 81.3782 169.458 81.122 169.467 80.8659C169.466 80.7711 169.466 80.6765 169.468 80.5819C169.484 79.716 169.508 78.8502 169.54 77.9847C169.568 77.2284 169.761 76.2743 170.513 76.1189C170.904 76.038 171.422 76.179 171.629 75.8422C171.699 75.7034 171.716 75.545 171.679 75.3947C171.677 75.4059 171.676 75.4177 171.673 75.4287C171.67 75.4146 171.668 75.4004 171.665 75.3865C171.51 74.7802 171.417 74.1602 171.386 73.5357C171.378 73.2539 171.419 72.9728 171.507 72.7045C171.943 71.4492 173.443 70.9341 174.769 70.6972C176.095 70.4604 177.583 70.2566 178.416 69.2132C178.638 68.8667 178.88 68.5324 179.139 68.2116C179.521 67.8699 179.99 67.637 180.496 67.5378C182.142 67.1277 183.881 67.2796 185.427 67.9687C186.069 68.2568 186.713 68.6449 187.417 68.601C188.147 68.5554 188.772 68.049 189.493 67.9258C190.658 67.7268 191.772 68.5864 192.347 69.6044C192.711 70.252 192.894 70.9837 192.875 71.7239C192.889 72.4609 192.619 73.1756 192.119 73.7244C191.618 74.2482 190.869 74.6081 190.661 75.2981C190.576 75.579 190.596 75.8815 190.521 76.165C190.511 76.2005 190.496 76.2335 190.484 76.2678C190.498 76.2854 190.513 76.3021 190.526 76.3197C191.404 77.4579 191.992 78.7861 192.241 80.1935C192.491 81.6009 192.395 83.0467 191.962 84.4102C191.528 85.7738 190.77 87.0155 189.75 88.0317C188.73 89.048 187.478 89.8093 186.098 90.2521C186.095 90.341 186.091 90.4299 186.092 90.5192C186.066 91.0729 186.161 91.6256 186.371 92.1399C186.581 92.6542 186.901 93.1181 187.309 93.5002L195.258 96.7095C195.258 96.7095 200.043 96.1384 201.77 103.169C202.047 104.338 202.146 105.541 202.065 106.738C202.003 107.798 202.149 109.664 203.376 112.08C205.338 115.944 204.892 124.815 200.878 125.693C197.075 126.525 195.596 126.176 195.45 126.137L195.442 126.292C195.504 127.956 196.106 142.313 198.291 144.05C198.895 144.53 198.779 144.855 198.284 145.074L198.285 145.075C198.285 145.075 198.289 145.167 198.298 145.333C198.364 146.383 198.701 150.382 200.164 152.657C201.859 155.292 201.681 170.487 201.681 170.487L202.84 179.446C202.84 179.446 202.127 184.979 202.84 185.945C203.245 186.493 203.736 194.976 204.085 202.219H233.884C236.586 202.219 239.177 201.163 241.087 199.282C242.998 197.401 244.071 194.849 244.071 192.189V62.4585C244.071 61.1413 243.808 59.837 243.296 58.6201C242.784 57.4031 242.033 56.2974 241.087 55.366C240.141 54.4346 239.018 53.6957 237.782 53.1917C236.546 52.6876 235.221 52.4281 233.884 52.4281V52.4281Z" fill="#6C63FF"/>
<path d="M223.598 41.0356H124.831C119.204 41.0356 114.643 45.5263 114.643 51.0659V180.797C114.643 186.336 119.204 190.827 124.831 190.827H223.598C229.224 190.827 233.786 186.336 233.786 180.797V51.0659C233.786 45.5263 229.224 41.0356 223.598 41.0356Z" stroke="#3F3D56" stroke-miterlimit="10"/>
<path d="M43.2104 95.6262C43.2104 95.6262 39.2143 94.4629 38.3572 95.7287C37.5 96.9946 39.5257 106.171 39.5257 106.171L48.3311 106.698L45.2582 99.0578L43.2104 95.6262Z" fill="#2F2E41"/>
<path d="M12.4046 170.982C12.4046 170.982 20.4166 188.3 14.2465 187.756C8.07633 187.212 5.68194 170.982 5.68194 170.982H12.4046Z" fill="#A0616A"/>
<path d="M64.8048 169.178C64.8048 169.178 61.29 187.89 67.1428 185.891C72.9956 183.893 71.3275 167.575 71.3275 167.575L64.8048 169.178Z" fill="#A0616A"/>
<path d="M41.5057 91.2841C41.5057 91.2841 41.4136 99.9883 44.821 100.442C48.2284 100.895 42.8871 105.519 42.8871 105.519L36.809 106.698L28.0603 106.063L24.1924 101.167C24.1924 101.167 31.0072 97.9936 28.0603 88.1107L41.5057 91.2841Z" fill="#A0616A"/>
<path opacity="0.1" d="M41.5057 91.2841C41.5057 91.2841 41.4136 99.9883 44.821 100.442C48.2284 100.895 42.8871 105.519 42.8871 105.519L36.809 106.698L28.0603 106.063L24.1924 101.167C24.1924 101.167 31.0072 97.9936 28.0603 88.1107L41.5057 91.2841Z" fill="black"/>
<path d="M57.1613 164.907C57.1613 164.907 61.4897 174.065 58.0823 202.806C58.0823 202.806 59.0953 212.961 58.2664 214.865C57.4376 216.769 50.6228 242.61 50.6228 242.61C50.6228 242.61 41.8741 244.514 40.6769 238.802C40.6769 238.802 41.8741 230.642 41.782 229.372C41.6899 228.103 43.7159 214.231 43.7159 214.231L39.5718 187.393L36.4406 211.601C36.4406 211.601 36.4406 218.583 35.4276 220.124C34.4146 221.666 35.4276 252.674 35.4276 252.674C35.4276 252.674 38.2825 257.389 33.9541 257.48C29.6258 257.57 25.758 257.389 25.3896 254.397C25.0212 251.405 24.837 248.413 23.9161 246.599C22.9952 244.786 21.798 224.023 22.0743 216.769C22.3505 209.516 15.9962 172.251 18.0222 168.352C20.0482 164.454 57.1613 164.907 57.1613 164.907Z" fill="#2F2E41"/>
<path d="M36.809 94.5482C42.9123 94.5482 47.8601 89.677 47.8601 83.668C47.8601 77.659 42.9123 72.7878 36.809 72.7878C30.7057 72.7878 25.758 77.659 25.758 83.668C25.758 89.677 30.7057 94.5482 36.809 94.5482Z" fill="#A0616A"/>
<path d="M25.758 101.348C25.758 101.348 32.4807 106.244 42.2424 102.346C42.2424 102.346 45.4657 100.804 45.1894 98.447C44.9131 96.0896 51.9121 117.397 51.9121 117.397L59.0032 154.48L58.6348 169.622C58.6348 169.622 55.5037 168.08 45.7419 171.526C35.9802 174.971 20.0483 167.627 20.0483 167.627L20.6008 128.73L21.1534 106.063L22.6268 101.076C22.6268 101.076 23.3636 99.7163 25.758 101.348Z" fill="#F2F2F2"/>
<path d="M41.8128 95.2617C41.8128 95.2617 43.4396 95.0015 45.0052 97.4496C46.5708 99.8977 50.2544 101.439 50.2544 101.439C50.2544 101.439 59.1874 101.983 60.4767 106.698C61.7659 111.413 64.9892 117.85 66.5547 129.728C68.1203 141.605 71.2514 160.555 71.7119 162.096C72.1723 163.638 71.0672 168.352 72.3565 169.803C73.6458 171.254 63.2394 171.254 63.2394 171.254C63.2394 171.254 62.3185 163.819 61.6738 163.819C61.0292 163.819 61.2134 168.806 61.858 172.433C62.5027 176.059 57.1613 172.433 57.1613 172.433C57.1613 172.433 53.0172 155.84 49.0572 140.88C45.0973 125.92 42.795 117.669 43.5317 114.314C44.2684 110.959 46.2945 101.348 44.821 100.442C43.3475 99.535 41.8128 95.2617 41.8128 95.2617Z" fill="#2F2E41"/>
<path d="M28.5324 95.2537C28.5324 95.2537 26.1264 96.5429 20.0483 100.804C13.9702 105.066 9.82606 108.33 9.82606 108.33C9.82606 108.33 7.43167 110.143 5.95821 120.933C4.48474 131.722 1.16942 159.648 2.45871 163.184C3.748 166.72 4.20846 168.806 3.748 170.891C3.28754 172.977 13.4177 172.886 13.6018 172.433C13.786 171.979 13.3256 163.728 13.786 163.547C14.2465 163.366 16.733 168.443 17.1934 172.705C17.6539 176.966 22.9952 180.321 24.1924 180.321C25.3896 180.321 31.5598 155.749 31.6519 138.976C31.744 122.202 29.6259 108.058 28.0603 106.063C26.4947 104.068 28.5324 95.2537 28.5324 95.2537Z" fill="#2F2E41"/>
<path d="M44.7289 243.426C44.7289 243.426 45.4657 241.431 48.0442 242.066C50.6228 242.701 52.3726 240.434 52.3726 240.434C52.3726 240.434 53.7539 240.253 52.833 241.975C51.9121 243.698 51.1754 244.877 51.1754 244.877C51.1754 244.877 56.7009 257.298 53.1093 260.29C49.5177 263.282 45.3736 261.469 45.3736 261.469C45.3736 261.469 41.3215 258.658 41.5057 251.224C41.5057 251.224 41.3215 248.866 39.1113 245.058C36.9011 241.25 35.2435 235.447 37.9141 234.359C40.5848 233.271 41.2722 233.231 41.2722 233.231C41.2722 233.231 40.0225 238.858 43.2506 240.825L44.7289 243.426Z" fill="#3F3D56"/>
<path d="M27.5998 257.48C27.5998 257.48 25.3896 253.4 29.0733 252.946C32.757 252.493 36.7169 252.221 36.5327 254.125C36.3486 256.029 35.8881 258.93 35.8881 258.93L36.5327 261.016C36.5327 261.016 36.7169 266.184 37.3616 266.819C38.0062 267.453 41.5057 272.893 34.0463 272.893C26.5868 272.893 24.3766 272.077 25.0212 270.355C25.6659 268.632 25.8501 260.109 25.8501 260.109L27.5998 257.48Z" fill="#3F3D56"/>
<path d="M33.3095 74.9638C33.3095 74.9638 38.4667 76.3238 41.1373 76.8678C43.808 77.4119 43.5317 75.8705 43.5317 75.8705C43.5317 75.8705 47.0312 76.3238 46.847 75.9612C46.6628 75.5985 48.3205 73.6944 46.3866 71.5184C44.4526 69.3423 45.0052 67.7103 45.0052 67.7103H43.3475L42.8871 67.0756H40.3085C40.3085 67.0756 38.3746 66.3503 33.3095 67.0756C28.2444 67.801 21.3375 67.9823 20.785 70.9744C20.2324 73.9665 17.3776 77.6839 18.3906 79.4066C19.4036 81.1293 25.2054 88.2014 25.758 91.1935C26.3105 94.1855 28.8905 94.8503 28.7977 92.9766C28.7049 91.1028 26.1263 84.5747 28.3365 84.3027C30.5467 84.0307 34.3225 78.4999 33.3095 74.9638Z" fill="#2F2E41"/>
</g>
<defs>
<clipPath id="clip0">
<rect width="420" height="273" fill="white"/>
</clipPath>
</defs>
</svg>
