<svg width="1024" height="576" viewBox="0 0 1024 576" fill="none" xmlns="http://www.w3.org/2000/svg">
<g clip-path="url(#clip0)">
<path d="M1032.85 0H-0.660004V634.13H1032.85V0Z" fill="#17404F"/>
<path opacity="0.8" d="M1098.92 438.25C1097.16 443.066 1095 447.729 1092.47 452.19H876.34C875.176 446.957 874.593 441.611 874.6 436.25C874.6 399.97 900.87 370.56 933.28 370.56C935.352 370.559 937.422 370.679 939.48 370.92C952 349.13 973 334.85 996.74 334.85C1017.52 334.85 1036.17 345.79 1048.92 363.14C1060.16 354.81 1072.74 352.52 1083.64 358.32C1104.3 369.28 1111.14 405.07 1098.92 438.25Z" fill="#19453D"/>
<path opacity="0.8" d="M47.11 463.25L278.11 443.25C286.16 434.12 290.42 423.49 289.46 412.52C287.59 390.96 266.13 374.19 237.18 368.82C225.18 337.82 193.08 317.17 157.44 320.26C144.664 321.307 132.338 325.459 121.532 332.355C110.727 339.252 101.77 348.683 95.44 359.83C80.34 357.56 65.57 361 54 370.71C30.28 390.62 28 430.17 47.11 463.25Z" fill="#19453D"/>
<path opacity="0.8" d="M68 398.21C62.18 413.88 53.48 426.21 44.74 432.42C43.883 435.292 42.8818 438.119 41.74 440.89H-10.21C-18.03 434.89 -23.16 424.89 -23.16 413.47C-23.16 398.58 -14.39 385.97 -2.32 381.81C-2.11 340.6 9.81 307.39 24.46 307.39C33.89 307.39 42.18 321.13 46.96 341.9C52.64 338.23 58.27 337.14 63.09 339.39C75.67 345.25 77.86 371.59 68 398.21Z" fill="#1F594E"/>
<g opacity="0.8">
<path opacity="0.8" d="M1032.58 394.33V518.13L72.81 539.13V398.63L219.77 397.98V398.63L798.62 395.38L1032.58 394.33Z" fill="#333366"/>
<path opacity="0.8" d="M985.21 385.18V394.33L798.62 395.38L219.77 397.98V387.87H230L292.88 387.64L316.58 387.55L344.66 387.45L863.18 385.54L887.62 385.46L912.63 385.37L963.68 385.18H985.21Z" fill="#DECCCE"/>
<path opacity="0.8" d="M963.68 377.64V385.18L912.63 385.37L887.62 385.46L863.18 385.54L344.66 387.45L316.58 387.55L292.88 387.64L230 387.87V379.8H238.61L293.42 379.63L302.87 379.6L316.73 379.56L323.87 379.54L344.66 379.47L862.38 377.89L886.98 377.82L911.66 377.75L945.38 377.64H963.68Z" fill="#F1DEE0"/>
<path opacity="0.8" d="M924.18 227.54L922.71 226.94C918.741 225.285 914.499 224.382 910.2 224.28V223.48L928.68 223.69L920.61 231.23H920.5L922.5 229.17L924.18 227.54Z" fill="#B08685"/>
<path opacity="0.8" d="M922.71 226.94L924.18 227.54L922.56 229.17L920.56 231.23H918.88C917.96 230.96 917.06 230.73 916.16 230.54C915.26 230.35 914.54 230.23 913.76 230.12C913.18 230.05 912.6 229.99 912.04 229.96C911.151 229.905 910.259 229.905 909.37 229.96C909.06 229.96 908.76 229.96 908.45 230.02C908.14 230.08 907.88 230.02 907.6 230.11L906.6 230.27C905.553 230.449 904.527 230.737 903.54 231.13L903.19 231.27C902.119 231.71 901.111 232.288 900.19 232.99L898.78 231.75L898 231L897.09 230.19L896.53 229.43C900.268 226.026 905.165 224.177 910.22 224.26C914.513 224.371 918.749 225.28 922.71 226.94Z" fill="#E6AFAD"/>
<path opacity="0.8" d="M910.68 370.16H911.61L938.16 370.12L945.38 370.11V377.64L911.66 377.75L886.98 377.82L862.38 377.89L344.66 379.47L323.87 379.54L316.73 379.56L302.87 379.6L293.42 379.63L238.61 379.8V371.18L272.74 371.13L283.15 371.11L293.98 371.1L299.08 371.09H303.43L307.93 371.07L316.88 371.06L324.02 371.05H327.14L353.46 371.01L388.57 370.96L414.8 370.91L449.65 370.86L475.9 370.82L509.05 370.77L535.4 370.73L568.57 370.68L594.87 370.64L631.95 370.58L658.32 370.54L674.5 370.52L680.98 370.51H681.08L690.95 370.49L717.43 370.46L750.37 370.4L776.92 370.37L807.27 370.32L833.76 370.28L861.58 370.24H862.13L886.33 370.2L888.72 370.19L910.68 370.16Z" fill="#DECCCE"/>
<path opacity="0.8" d="M901.48 223.38L910.21 223.48V224.28C905.155 224.197 900.258 226.046 896.52 229.45L897.08 230.21L897.99 231.02L891.52 230.96L901.48 223.38Z" fill="#B08685"/>
<path opacity="0.8" d="M900.36 236.61L900.56 238.96L898.07 240.32C894.01 238.351 889.58 237.261 885.07 237.12V236.77L900.36 236.61Z" fill="#6E5453"/>
<path opacity="0.8" d="M921.25 240.34L938.16 370.12H911.61L900.87 242.57L900.56 238.96L900.36 236.61L900.06 232.99L900.14 232.93L900.2 232.99C901.116 232.265 902.125 231.666 903.2 231.21C903.317 231.156 903.437 231.109 903.56 231.07C904.527 230.679 905.533 230.391 906.56 230.21L907.56 230.05C907.84 230.05 908.12 229.98 908.41 229.96C908.7 229.94 909.02 229.91 909.33 229.9C910.219 229.845 911.111 229.845 912 229.9C912.57 229.9 913.15 230 913.73 230.07C914.51 230.18 915.3 230.32 916.11 230.49C916.92 230.66 917.88 230.9 918.78 231.17C919.23 231.3 919.68 231.45 920.13 231.6L921.25 240.34Z" fill="#F1DEE0"/>
<path opacity="0.8" d="M898.07 240.32L898.37 240.45L896.85 242.07L894.58 244.5C893.68 244.167 892.79 243.887 891.91 243.66C890.806 243.353 889.684 243.116 888.55 242.95C888.13 242.89 887.71 242.84 887.3 242.81L886.76 242.76C885.669 242.67 884.571 242.67 883.48 242.76C883.195 242.778 882.911 242.812 882.63 242.86L882.1 242.94L881.64 243.02L880.86 243.2H880.76L880.19 243.36L880.03 243.41L879.47 243.61C879.424 243.618 879.38 243.635 879.34 243.66L878.7 243.91H878.65C877.633 244.342 876.683 244.918 875.83 245.62L874.5 244.35L872.94 243L872.41 242.24C874.086 240.599 876.071 239.306 878.248 238.434C880.426 237.562 882.754 237.129 885.1 237.16C889.597 237.292 894.016 238.369 898.07 240.32V240.32Z" fill="#B08685"/>
<path opacity="0.8" d="M897.69 223.32H897.7L901.78 220.46V223.15L901.5 223.36L901.48 223.38L891.51 230.96H891.01V228L897.68 223.34L897.69 223.32Z" fill="#8C6B6A"/>
<path opacity="0.8" d="M885.1 236.77V237.12C882.754 237.089 880.426 237.522 878.248 238.394C876.071 239.266 874.086 240.559 872.41 242.2L872.05 242.25L871.73 239.8L871.35 236.91L885.1 236.77Z" fill="#6E5453"/>
<path opacity="0.8" d="M876.58 255.33L881.85 317.49L873.53 253.64L876.31 252.13L876.58 255.33Z" fill="#204766"/>
<path opacity="0.8" d="M895.7 253.22L910.7 370.16H888.7L881.83 317.46L876.56 255.3L876.29 252.1L875.74 245.73H875.81H875.87C876.722 245.012 877.671 244.42 878.69 243.97C879.048 243.806 879.415 243.662 879.79 243.54L880.09 243.44L880.72 243.25L881.16 243.15L881.57 243.05L882.03 242.97L882.56 242.89C882.841 242.842 883.125 242.809 883.41 242.79C884.501 242.7 885.599 242.7 886.69 242.79L887.23 242.84C887.65 242.84 888.07 242.93 888.5 242.99C889.623 243.161 890.735 243.398 891.83 243.7C892.71 243.93 893.6 244.22 894.51 244.55L895.7 253.22Z" fill="#E6AFAD"/>
<path opacity="0.8" d="M901.78 220.17V220.46L897.7 223.32H897.69L897.68 223.34L891.01 228H874.33L874.25 227.89L874.37 227.8L880.75 223.14L880.76 223.13H880.78V219.89L901.78 220.17Z" fill="#B08685"/>
<path opacity="0.8" d="M874.25 227.89L872.48 229.18L873.03 228.63L874.65 227C870.249 224.987 865.488 223.881 860.65 223.75V222.91L880.65 223.14L874.27 227.8L874.25 227.89Z" fill="#B08685"/>
<path opacity="0.8" d="M873.53 253.64L872.05 242.25L872.41 242.2L872.94 242.96L874.5 244.44L875.83 245.71H875.76L876.31 252.08L873.53 253.64Z" fill="#4D3A3A"/>
<path opacity="0.8" d="M891.01 230.96L870.91 230.77L872.47 229.19L872.48 229.18L874.25 227.89L874.33 228H891.01V230.96Z" fill="#4D3A3A"/>
<path opacity="0.8" d="M891 231H891.5H898L898.75 231.67L900.16 232.91L900.08 232.97L900.38 236.59L885.12 236.75L871.37 236.89L870.62 231.08C870.27 230.96 869.91 230.84 869.55 230.74H869.61C869.95 230.84 870.28 230.94 870.61 231.06L870.92 230.75L891 231Z" fill="#6E5453"/>
<path opacity="0.8" d="M874.65 227L873 228.63L872.45 229.18L870.3 230.76H869.57C867.803 230.211 865.993 229.81 864.16 229.56C863.58 229.49 863.01 229.43 862.45 229.4C861.561 229.345 860.669 229.345 859.78 229.4C859.47 229.4 859.16 229.4 858.86 229.46C858.56 229.52 858.29 229.51 858.01 229.55L857.01 229.71C855.889 229.902 854.792 230.217 853.74 230.65L853.59 230.71C852.52 231.156 851.512 231.737 850.59 232.44L849.19 231.19L848.53 230.61L847.53 229.71L846.97 228.95C850.715 225.552 855.614 223.707 860.67 223.79C865.498 223.911 870.253 225.003 874.65 227Z" fill="#E6AFAD"/>
<path opacity="0.8" d="M861.58 370.24L847.67 237.14L850.93 237.11L851.35 242.03L862.13 370.24H861.58Z" fill="#204766"/>
<path opacity="0.8" d="M847.67 237.14L861.58 370.24L833.76 370.28L819.25 239.31L818.97 236.77L847.67 237.14Z" fill="#B08685"/>
<path opacity="0.8" d="M873.53 253.64L881.85 317.49L888.72 370.19H886.33H862.13L851.35 242L850.93 237.08L850.54 232.43L850.61 232.37L850.68 232.43C851.595 231.701 852.604 231.099 853.68 230.64L853.84 230.58C854.866 230.152 855.936 229.837 857.03 229.64L858.03 229.48C858.31 229.48 858.59 229.41 858.88 229.39C859.17 229.37 859.49 229.39 859.8 229.33C860.689 229.275 861.581 229.275 862.47 229.33C863.04 229.33 863.62 229.43 864.2 229.51C866.008 229.747 867.791 230.142 869.53 230.69C869.89 230.79 870.25 230.91 870.6 231.03L871.35 236.84L871.73 239.73L872.05 242.18L873.53 253.64Z" fill="#F1DEE0"/>
<path opacity="0.8" d="M853.87 219.53V222.69L853.67 222.81L853.64 222.82L846.64 227.2L846.23 227.46L841.6 230.35L841.49 227.46L841.58 227.4L846.33 224.3L848.68 222.77H848.69L848.7 222.75L853.65 219.52H853.66L853.87 219.53Z" fill="#8C6B6A"/>
<path opacity="0.8" d="M847.67 237.14L846.99 230.55H848.55L849.21 231.13L850.61 232.38L850.54 232.44L850.93 237.09L847.67 237.14Z" fill="#6E5453"/>
<path opacity="0.8" d="M853.64 222.83L860.7 222.91V223.75C855.644 223.667 850.745 225.512 847 228.91L847.56 229.67L848.56 230.57H847L841.62 230.52V230.37L846.25 227.48L846.66 227.22L853.66 222.85L853.64 222.83Z" fill="#B08685"/>
<path opacity="0.8" d="M826.91 222.51H826.96V219.17L845.82 219.42L853.65 219.52L848.7 222.75L848.69 222.77H848.68L846.33 224.3L841.58 227.4L821.79 227.16L826.9 222.52L826.91 222.51Z" fill="#B08685"/>
<path opacity="0.8" d="M841.37 230.5H841.36L818.55 230.29L820.76 228.11L820.83 228.04L821.79 227.16L841.58 227.4L841.49 227.46L841.6 230.35L841.61 230.5H841.6H841.37Z" fill="#4D3A3A"/>
<path opacity="0.8" d="M820.83 228L822.4 226.43C818.047 224.408 813.328 223.292 808.53 223.15V222.27L826.89 222.48L821.78 227.12L820.83 228Z" fill="#B08685"/>
<path opacity="0.8" d="M841.36 230.5H841.61L846.99 230.55L847.67 237.14L818.97 236.77L818.28 230.58C817.97 230.47 817.65 230.37 817.34 230.28H817.43L818.28 230.56L818.55 230.29L841.36 230.5Z" fill="#6E5453"/>
<path opacity="0.8" d="M822.4 226.47L820.83 228L818.36 230.25H817.43C816.07 229.825 814.684 229.491 813.28 229.25L812.71 229.16L811.94 229.04C811.36 228.96 810.78 228.9 810.22 228.86C809.298 228.8 808.372 228.8 807.45 228.86C806.992 228.871 806.534 228.908 806.08 228.97H805.71C805.34 228.97 804.97 229.09 804.6 229.16C803.514 229.366 802.452 229.681 801.43 230.1V230.1C800.359 230.543 799.35 231.125 798.43 231.83L797 230.61L796.42 230.08L795.42 229.08L794.88 228.32C798.639 224.922 803.544 223.072 808.61 223.14C813.384 223.308 818.075 224.441 822.4 226.47V226.47Z" fill="#E6AFAD"/>
<path opacity="0.8" d="M798.89 241.54L807.27 370.32L776.92 370.37L764.69 238.24L764.49 236.08L798.57 236.51L798.89 241.54Z" fill="#B08685"/>
<path opacity="0.8" d="M799.5 222.19H799.58L799.56 222.21L794.02 226.83H794.01L790.32 229.91L789.81 226.92L789.98 226.78L799.5 218.85V222.19Z" fill="#8C6B6A"/>
<path opacity="0.8" d="M799.5 218.8V218.85L789.98 226.78H789.93L767.09 226.5L771.71 221.88L771.72 221.87H771.51V218.43L799.5 218.8Z" fill="#B08685"/>
<path opacity="0.8" d="M819.25 239.31L833.76 370.31H807.27L798.9 241.54L798.57 236.54L798.27 231.96L798.35 231.9L798.41 231.96C799.325 231.231 800.334 230.629 801.41 230.17V230.17C802.409 229.754 803.448 229.439 804.51 229.23C804.88 229.16 805.25 229.09 805.62 229.04H805.99C806.444 228.978 806.902 228.941 807.36 228.93C808.282 228.87 809.208 228.87 810.13 228.93C810.71 228.93 811.29 229.04 811.87 229.11L812.64 229.23L813.21 229.32C814.582 229.571 815.938 229.905 817.27 230.32C817.58 230.41 817.9 230.51 818.21 230.62L818.9 236.81L819.25 239.31Z" fill="#F1DEE0"/>
<path opacity="0.8" d="M797 230.61L798.38 231.87L798.3 231.93L798.6 236.51L764.52 236.08L763.94 229.78L789.94 230.02H790.34L796.4 230.08L797 230.61Z" fill="#6E5453"/>
<path opacity="0.8" d="M794 226.83L799.54 222.21L808.54 222.31V223.19C803.474 223.122 798.569 224.972 794.81 228.37L795.35 229.13L796.35 230.13L790.29 230.07V229.96L794 226.83Z" fill="#B08685"/>
<path opacity="0.8" d="M789.81 226.92L790.32 229.91L790.19 230.02H790.18H789.93L763.91 229.78L763.9 229.69L767.09 226.5L789.93 226.78H789.98L789.81 226.92Z" fill="#4D3A3A"/>
<path opacity="0.8" d="M763.89 229.48L766.4 227L768.08 225.36C763.745 223.335 759.042 222.219 754.26 222.08V221.65L771.7 221.85L767.08 226.47L763.89 229.66V229.48C761.844 228.756 759.73 228.24 757.58 227.94C756.99 227.86 756.42 227.8 755.85 227.76C756.41 227.76 756.98 227.85 757.56 227.93C759.715 228.24 761.835 228.76 763.89 229.48V229.48Z" fill="#B08685"/>
<path opacity="0.8" d="M749.44 228.27H749.32H749.26C748.505 228.45 747.766 228.69 747.05 228.99C746.64 229.16 746.25 229.34 745.86 229.54H742.69L742.63 229.48L741.03 228L740.5 227.24C744.3 223.851 749.229 222.003 754.32 222.06C759.102 222.199 763.805 223.315 768.14 225.34L766.4 227L763.89 229.45C761.831 228.739 759.708 228.23 757.55 227.93C756.97 227.85 756.4 227.8 755.84 227.76C754.898 227.7 753.952 227.7 753.01 227.76C752.58 227.76 752.16 227.82 751.74 227.87H751.33L750.33 228.03H750.23H750.08H750H749.85H749.8H749.66H749.59L749.44 228.27Z" fill="#E6AFAD"/>
<path opacity="0.8" d="M717.43 370.46L707.67 237.66L707.5 235.35L744.08 235.81L744.3 240.46L750.37 370.4L717.43 370.46Z" fill="#B08685"/>
<path opacity="0.8" d="M764.69 238.24L776.92 370.36H750.37L744.3 240.46L744.08 235.81L743.84 230.81L743.93 230.75L743.98 230.81C744.582 230.346 745.221 229.932 745.89 229.57C746.27 229.37 746.66 229.19 747.06 229.02L747.49 228.85H747.55H747.67H747.81H747.86H747.94L748.36 228.71L748.78 228.58H748.86H748.95L749.18 228.51H749.24H749.3H749.42H749.55H749.62H749.76H749.81H749.96H750.02H750.17H750.27L751.27 228.35H751.68C752.1 228.3 752.52 228.26 752.95 228.24C753.892 228.18 754.838 228.18 755.78 228.24C756.35 228.24 756.92 228.34 757.51 228.42C759.66 228.72 761.774 229.236 763.82 229.96V230.14L763.73 230.23H763.83L764.41 236.53L764.69 238.24Z" fill="#F1DEE0"/>
<path opacity="0.8" d="M743.52 218.06V221.39L743.36 221.54L743.34 221.56L738.28 226.16L734.59 229.51H734.37V226.38L734.66 226.11L743.22 218.05L743.52 218.06Z" fill="#8C6B6A"/>
<path opacity="0.8" d="M741 228.05L742.6 229.53L742.66 229.59L734.66 229.51L738.35 226.16L743.41 221.56H743.56L754.34 221.68V222.11C749.249 222.053 744.32 223.901 740.52 227.29L741 228.05Z" fill="#B08685"/>
<path opacity="0.8" d="M734.66 226.11L734.37 226.38V229.51L708.01 229.27H707.89L710.56 225.82H710.7L734.56 226.11H734.66Z" fill="#4D3A3A"/>
<path opacity="0.8" d="M714.45 221.21V217.67L743.22 218.05L734.66 226.11H734.56L710.7 225.82H710.56L714.11 221.23L714.12 221.21H714.45Z" fill="#B08685"/>
<path opacity="0.8" d="M707.89 229.27H708L734.36 229.51H734.58L742.58 229.59L743.88 230.79L743.79 230.85L744.03 235.85L707.45 235.39L707 229.3L707.89 229.27Z" fill="#6E5453"/>
<path opacity="0.8" d="M707 228.88L709.55 226.39L711.25 224.73C707.03 222.781 702.457 221.712 697.81 221.59V221L714.07 221.19L710.52 225.78L707.85 229.23H707.01V228.87C704.971 228.172 702.867 227.679 700.73 227.4H700.54H700.72C702.858 227.68 704.962 228.176 707 228.88V228.88Z" fill="#B08685"/>
<path opacity="0.8" d="M700.42 227.38H700.05C699.75 227.38 699.46 227.32 699.17 227.31C699.58 227.3 700 227.34 700.42 227.38Z" fill="#B08685"/>
<path opacity="0.8" d="M697.85 221V221.55C692.637 221.503 687.595 223.412 683.72 226.9L684.23 227.66L685.68 229.02L679.48 228.96H679.39L679.48 228.87L682.59 225.44L686.75 220.87L697.85 221Z" fill="#B08685"/>
<path opacity="0.8" d="M697.19 227.24H696.72L695.92 227.29H695.71H695.38L694.69 227.37L693.96 227.49H693.82C692.59 227.704 691.388 228.059 690.24 228.55C689.92 228.69 689.59 228.84 689.24 229.01H685.68L684.23 227.65L683.72 226.89C687.595 223.402 692.637 221.493 697.85 221.54C702.497 221.662 707.07 222.731 711.29 224.68L709.59 226.34L707 228.88C704.958 228.182 702.851 227.693 700.71 227.42H700.53H700.39C699.97 227.42 699.55 227.34 699.14 227.32C698.63 227.32 698.14 227.27 697.62 227.27H697.16L697.19 227.24Z" fill="#E6AFAD"/>
<path opacity="0.8" d="M697.16 227.24H697.62C698.12 227.24 698.62 227.24 699.14 227.29C699.43 227.29 699.72 227.29 700.02 227.36L700.72 227.44C702.857 227.716 704.961 228.205 707 228.9V229.26L707.45 235.35L707.62 237.66L717.38 370.46H690.9L687.3 240.12L687.16 235.12L687.03 230.51L687.11 230.45L687.17 230.5C687.843 229.978 688.562 229.519 689.32 229.13C689.63 228.96 689.94 228.82 690.26 228.68C690.426 228.601 690.597 228.531 690.77 228.47L691.31 228.27L691.71 228.14H691.77L692.37 227.96H692.54L692.82 227.89L693.09 227.82L693.62 227.71H693.76H693.9L694.63 227.59L695.32 227.51H695.65H695.86L696.66 227.46H697.13C697.13 227.46 697.15 227.23 697.16 227.24Z" fill="#F1DEE0"/>
<path opacity="0.8" d="M687.3 240.12L690.95 370.49L681.08 370.51L673.01 235V234.91L687.16 235.09L687.3 240.12Z" fill="#B08685"/>
<path opacity="0.8" d="M686.76 220.89L686.74 220.91L682.58 225.49L679.47 228.91V225.45V225.31L686.41 217.3H686.46V220.89H686.76Z" fill="#8C6B6A"/>
<path opacity="0.8" d="M686.41 217.3L679.47 225.31V225.45H679.43L652.85 225.13L656.54 220.56L656.56 220.55L656.32 220.54V216.89L686.41 217.3Z" fill="#B08685"/>
<path opacity="0.8" d="M679.47 225.45V228.91L679.38 229L650.08 228.73L650.56 228.17L651.96 226.53L652.38 225.73L652.86 225.14L679.44 225.46L679.47 225.45Z" fill="#4D3A3A"/>
<path opacity="0.8" d="M679.38 229H679.47L685.67 229.06L685.78 229.17L687.11 230.42L687.03 230.48L687.16 235.09L673 234.9L649.69 234.61L649.38 229.61L650.12 228.75L679.38 229Z" fill="#6E5453"/>
<path opacity="0.8" d="M673.01 235L681.08 370.51H680.98L674.5 370.52L667.62 240.38L673.01 235Z" fill="#4D3A3A"/>
<path opacity="0.8" d="M673.01 234.91V235L667.62 240.38L650.05 240.12L650 239.26L649.7 234.61L673.01 234.91Z" fill="#4D3A3A"/>
<path opacity="0.8" d="M658.32 370.54L650.05 240.12L667.62 240.38L674.5 370.52L658.32 370.54Z" fill="#362929"/>
<path opacity="0.8" d="M656.24 220.56H656.55L652.85 225.13L652.37 225.72C648.824 223.169 644.568 221.795 640.2 221.79V220.38L656.24 220.56Z" fill="#B08685"/>
<path opacity="0.8" d="M649.39 229.61L649.7 234.61L650 239.26V240.12L658.27 370.54H631.9L629.53 239.77V239L629.44 234.37L629.36 230.2C630.701 229.575 632.08 229.037 633.49 228.59L634.49 228.3L634.99 228.17L635.47 228.06L636.02 227.93C638.277 227.426 640.598 227.281 642.9 227.5C643.44 227.56 643.97 227.64 644.49 227.75C645.01 227.856 645.524 227.99 646.03 228.15C646.558 228.309 647.075 228.499 647.58 228.72C648.173 228.985 648.747 229.289 649.3 229.63L649.39 229.61Z" fill="#F1DEE0"/>
<path opacity="0.8" d="M652.37 225.72L649.94 228.72H649.67H647.67C647.161 228.49 646.636 228.296 646.1 228.14C645.585 227.975 645.061 227.841 644.53 227.74C644.01 227.63 643.53 227.55 642.94 227.49C640.638 227.271 638.316 227.416 636.06 227.92L635.52 228.04L635.03 228.16L634.53 228.29L633.53 228.58C632.129 229.021 630.756 229.549 629.42 230.16L627.34 228.53L626.62 227.96L624.75 226.49C630.45 223.28 635.58 221.8 640.22 221.8C644.58 221.806 648.829 223.177 652.37 225.72V225.72Z" fill="#E6AFAD"/>
<path opacity="0.8" d="M629.58 239.82L631.95 370.58L594.87 370.64L588.42 239.21L629.58 239.82Z" fill="#362929"/>
<path opacity="0.8" d="M629.57 238.99L629.58 239.82L588.42 239.21L588.16 233.82L629.48 234.35L629.57 238.99Z" fill="#4D3A3A"/>
<path opacity="0.8" d="M629.4 230.15C630.736 229.539 632.109 229.011 633.51 228.57V228.57C632.1 229.017 630.721 229.555 629.38 230.18L629.46 234.35L588.14 233.82L587.94 229.61L589.17 228.17H589.71L622.66 228.47H623H627.37L629.4 230.15Z" fill="#6E5453"/>
<path opacity="0.8" d="M628.57 220.24L625.31 224.8L624.32 226.18L622.95 228.11V224.77H622.98L628.33 216.69V220.22H628.58L628.57 220.24Z" fill="#8C6B6A"/>
<path opacity="0.8" d="M626.6 227.95L627.32 228.52L622.95 228.48V228.11L624.32 226.18L624.73 226.48L626.6 227.95Z" fill="#B08685"/>
<path opacity="0.8" d="M625.31 224.8L628.56 220.24L640.22 220.38V221.79C635.58 221.79 630.45 223.27 624.75 226.48L624.34 226.18L625.34 224.8H625.31Z" fill="#B08685"/>
<path opacity="0.8" d="M623 224.77V228.11L622.73 228.48L589.78 228.18L590.64 226.54L591.24 225.86L591.07 225.74L591.79 224.4L622.79 224.78L623 224.77Z" fill="#4D3A3A"/>
<path opacity="0.8" d="M628.33 216.52V216.69L622.95 224.77H622.79L591.74 224.39L594.15 219.84L593.81 219.83L593.82 219.82H593.88H594.09V216.07L628.33 216.52Z" fill="#B08685"/>
<path opacity="0.8" d="M588.42 239.21L594.87 370.64H568.57L568.07 238.87V233.52V230.11C570.024 229.2 572.064 228.49 574.16 227.99C577.622 227.078 581.266 227.113 584.71 228.09C585.864 228.437 586.967 228.934 587.99 229.57L588.19 233.78L588.42 239.21Z" fill="#F1DEE0"/>
<path opacity="0.8" d="M590.59 226.53L589.19 228.17L588 229.61C586.977 228.974 585.874 228.477 584.72 228.13C581.276 227.153 577.632 227.118 574.17 228.03C572.074 228.53 570.034 229.24 568.08 230.15L565.28 227.95L563.41 226.48C574.62 220.17 583.63 220.54 591.06 225.73L590.59 226.53Z" fill="#E6AFAD"/>
<path opacity="0.8" d="M535.4 370.73L530.86 238.36L568.07 238.91L568.57 370.68L535.4 370.73Z" fill="#362929"/>
<path opacity="0.8" d="M568.05 233.56L568.07 238.91L530.86 238.36L530.85 238.13L530.68 233.08L568.05 233.56Z" fill="#4D3A3A"/>
<path opacity="0.8" d="M565.97 219.52L564 224.06L562.32 227.92H562.12V224.23L562.21 224.04L565.85 215.69H565.89V219.5H565.98L565.97 219.52Z" fill="#8C6B6A"/>
<path opacity="0.8" d="M562.32 227.92L564.03 224.06L566.03 219.52L593.81 219.83L591.46 224.38H591.74L591.02 225.72C583.59 220.53 574.58 220.16 563.37 226.47L565.24 227.94L562.32 227.92Z" fill="#B08685"/>
<path opacity="0.8" d="M531.3 227.64H531.87H532.02L562.12 227.92H562.32L565.24 227.95L568.04 230.15L568.05 233.56L530.68 233.08L530.52 228.54L531.3 227.64Z" fill="#6E5453"/>
<path opacity="0.8" d="M656.32 216.89V220.54H656.25L628.58 220.22H628.33V216.69V216.52V216.5L593.88 216.04V216.06V219.82H593.82H593.6L565.98 219.5H565.89V215.69V215.68H565.86L534.67 215.27V219.14H534.46L507.21 218.83V218.22V214.99V214.91L475.99 214.49V217.23L475.87 218.47L447.46 218.14V214.12V214.11L416.78 213.7V213.72V216.69V217.79L387.76 217.45H387.71V213.34V213.31L358.11 212.92V212.93V212.94V216.69V217.11L344.8 216.96L328.53 216.77H328.5V212.56V212.53L304.28 212.21V212.24V212.39V216.5L273.59 216.14V211.83L277.74 211.76L277.85 189.7L277.9 179.55L344.83 180.67L842.65 189.02L920.08 190.32L920.87 194L926.48 220.42L928.68 220.45V223.68L901.78 223.37V223.15V220.46V220.17V220.09L880.78 219.82V219.89V223.13H880.76L853.87 222.81V222.69V219.53V219.46H853.76L845.82 219.36L826.96 219.11V219.17V222.51H826.91L799.58 222.19H799.5V218.85V218.8V218.75L771.51 218.38V218.43V221.87L743.52 221.54V221.39V218.06V218.01H743.27L714.45 217.63V217.67V221.21H714.12L686.76 220.89H686.46V217.3V217.26H686.44L656.32 216.87V216.89Z" fill="#F1DEE0"/>
<path opacity="0.8" d="M534.67 219.14V215.27L565.85 215.69L562.21 224.04L533.21 223.69H533.08L534.46 219.16V219.14H534.67Z" fill="#B08685"/>
<path opacity="0.8" d="M562.12 227.92L532.02 227.64H531.87L532.18 226.64L533.18 225.47L533.61 224.67C533.38 224.5 533.14 224.34 532.9 224.18L533.05 223.7H533.18L562.18 224.05L562.1 224.24L562.12 227.92Z" fill="#4D3A3A"/>
<path opacity="0.8" d="M507.83 226.87L506 225.4C516.94 219.29 525.73 219.4 532.95 224.17C533.19 224.33 533.43 224.49 533.66 224.66L533.23 225.46L532.23 226.63L531.83 227.09L531.35 227.64L530.57 228.54C530.016 228.186 529.434 227.878 528.83 227.62C528.339 227.399 527.835 227.209 527.32 227.05C523.874 226.081 520.233 226.047 516.77 226.95C516.13 227.1 515.48 227.28 514.83 227.48C513.403 227.917 512.006 228.448 510.65 229.07L508.57 227.42L507.83 226.87Z" fill="#E6AFAD"/>
<path opacity="0.8" d="M530.85 238.36L535.4 370.73H509.05L510.5 237.79L510.56 232.79V229.03C511.916 228.408 513.313 227.877 514.74 227.44C515.39 227.24 516.04 227.06 516.68 226.91C520.143 226.007 523.784 226.041 527.23 227.01C527.745 227.169 528.249 227.359 528.74 227.58C529.344 227.838 529.926 228.146 530.48 228.5L530.64 233.04L530.81 238.04L530.85 238.36Z" fill="#F1DEE0"/>
<path opacity="0.8" d="M475.9 370.82L471.15 236.61V232.32L510.56 232.83L510.5 237.83L509.05 370.77L475.9 370.82Z" fill="#B08685"/>
<path opacity="0.8" d="M507.83 226.87L508.52 227.42H505.06H504.82L505.06 226.51L505.87 223.39L507.05 218.87L534.46 219.19L533.08 223.72L532.93 224.2C525.71 219.47 516.93 219.32 505.98 225.43L507.83 226.87Z" fill="#B08685"/>
<path opacity="0.8" d="M475.05 227.12H475.12L504.82 227.39H505.06L508.52 227.42L510.6 229.07L510.56 232.83L471.15 232.32V228.54L473.47 227.1H473.48L475.05 227.12Z" fill="#6E5453"/>
<path opacity="0.8" d="M698.83 133.34L498.44 128.15L600.88 121.96L698.84 132.99L698.83 133.34Z" fill="#F1DEE0"/>
<path opacity="0.8" d="M932.46 174.71V184.4L842.03 183.08L344.84 175.83L268.21 174.71V161.79L344.85 163.28L840.97 172.93L932.46 174.71Z" fill="#F1DEE0"/>
<path opacity="0.8" d="M475.87 218.47H475.99V217.23V214.49L507.21 214.91V214.99L505.06 223.25V223.35H505L475.52 222.99H475.44L475.87 218.49V218.47Z" fill="#B08685"/>
<path opacity="0.8" d="M504.82 227.39L475.12 227.12H475.05L475.15 226.07L475.44 222.99H475.52L505 223.35H505.06V226.48L504.82 227.39Z" fill="#4D3A3A"/>
<path opacity="0.8" d="M447.46 225.47C453.38 218.31 469.53 218.31 475.15 226.07L473.48 227.07L471.16 228.51C470.313 227.955 469.427 227.46 468.51 227.03C464 224.91 459.76 225.03 455.14 226.9C453.99 227.371 452.868 227.908 451.78 228.51L449.45 226.85L447.46 225.47Z" fill="#E6AFAD"/>
<path opacity="0.8" d="M449.65 370.86L451.77 235.53V228.53C452.858 227.928 453.98 227.391 455.13 226.92C459.75 225.07 463.99 224.92 468.5 227.05C469.417 227.48 470.303 227.975 471.15 228.53V236.6L475.9 370.81L449.65 370.86Z" fill="#F1DEE0"/>
<path opacity="0.8" d="M451.77 228.54V232.07L412.89 231.57L412.95 228.48L415.59 226.57L417.72 226.59L447.46 226.86L449.44 226.88L451.77 228.54Z" fill="#6E5453"/>
<path opacity="0.8" d="M451.77 235.53L449.65 370.86L414.8 370.91L412.78 236.47L412.89 231.57L451.77 232.07V235.53Z" fill="#B08685"/>
<path opacity="0.8" d="M475.15 226.07C469.53 218.31 453.38 218.31 447.46 225.47V218.16L475.87 218.49L475.44 222.99L475.15 226.07Z" fill="#B08685"/>
<path opacity="0.8" d="M447.46 225.47V226.86L417.72 226.59L417.31 222.29L447.46 222.65V225.47Z" fill="#4D3A3A"/>
<path opacity="0.8" d="M447.46 218.14V218.16V222.65L417.31 222.29L416.89 217.8L416.88 217.79L416.78 216.69V213.72L447.46 214.12V218.14Z" fill="#B08685"/>
<path opacity="0.8" d="M416.78 217.8H416.89L417.31 222.29L417.72 226.59H415.59L417.03 225.59C411.57 217.85 395.39 217.84 389.31 225H389.25L388.64 222L387.76 217.52L416.78 217.8Z" fill="#B08685"/>
<path opacity="0.8" d="M417 225.53L415.56 226.53L413 228.48V228.11C412.132 227.51 411.22 226.979 410.27 226.52C405.88 224.4 401.7 224.52 397.12 226.39C395.908 226.888 394.729 227.462 393.59 228.11V228.18L391.18 226.34L389.35 224.94C395.39 217.78 411.57 217.79 417 225.53Z" fill="#E6AFAD"/>
<path opacity="0.8" d="M413 228.11V228.48L412.94 231.57L412.83 236.47L414.83 370.91H388.6L393.42 235.3L393.51 231.3L393.58 228.17V228.1C394.719 227.452 395.898 226.878 397.11 226.38C401.69 224.53 405.87 224.38 410.26 226.51C411.213 226.972 412.129 227.507 413 228.11V228.11Z" fill="#F1DEE0"/>
<path opacity="0.8" d="M393.55 228.19L393.48 231.32L355.64 230.84L355.83 227.07L356.89 226.03L361.15 226.07L389.5 226.32H389.53L391.14 226.34L393.55 228.18V228.19Z" fill="#6E5453"/>
<path opacity="0.8" d="M393.39 235.35L388.57 370.96L353.46 371.01L355.42 235.12L355.64 230.84L393.48 231.32L393.39 235.35Z" fill="#B08685"/>
<path opacity="0.8" d="M389.53 226.32L389.25 224.95L389.31 224.94L391.14 226.34L389.53 226.32Z" fill="#B08685"/>
<path opacity="0.8" d="M387.76 217.47L388.64 221.95L361.34 221.61V221.25L359.74 217.15V217.13L358.11 212.94L387.71 213.34V217.45V217.47H387.76Z" fill="#B08685"/>
<path opacity="0.8" d="M389.25 224.95L389.53 226.32H389.5L361.15 226.07L359.84 221.6L361.34 225.84V221.61L388.64 221.95L389.25 224.95Z" fill="#4D3A3A"/>
<path opacity="0.8" d="M359.84 221.6L361.15 226.07H356.89L359.99 224.22C357.32 220.28 351.8 218.34 346.21 218.34V217L358.1 217.14H358.25L359.84 221.6Z" fill="#B08685"/>
<path opacity="0.8" d="M359.74 217.15L361.34 221.25V221.61V225.84L359.84 221.6L358.26 217.13V217.11L358.11 216.69V212.94L359.74 217.13V217.15Z" fill="#8C6B6A"/>
<path opacity="0.8" d="M327.15 371.05L333.58 272.15L336.06 234L336.28 230.58L336.58 225.84C343.15 222.84 348.72 222.36 354.68 226.01C355.07 226.24 355.45 226.49 355.84 226.76V227.07L355.65 230.84L355.43 235.12L353.43 371.01L327.15 371.05Z" fill="#F1DEE0"/>
<path opacity="0.8" d="M346.21 218.3C351.8 218.3 357.32 220.24 359.99 224.18L356.89 226.03L355.83 227.03V226.72C355.44 226.45 355.06 226.2 354.67 225.97C348.67 222.32 343.14 222.77 336.57 225.8L332.29 223.55C335.37 220.09 340.82 218.3 346.21 218.3Z" fill="#E6AFAD"/>
<path opacity="0.8" d="M837.72 141.87L344.85 128.95H344.65L342.5 124.11L498.44 128.15L698.83 133.34L841.49 137.03L837.72 141.87Z" fill="#E6AFAD"/>
<path opacity="0.8" d="M344.85 128.95L837.72 141.87L840.97 172.93L344.85 163.28V128.95Z" fill="#F1DEE0"/>
<path opacity="0.8" d="M301.59 230.1V226.38L303.03 225.73L309.66 225.85L309.59 225.72L309.72 225.64L332.55 225.85H332.82H336.59L336.29 230.59L313.39 230.3L301.87 230.15H301.6L301.59 230.1Z" fill="#6E5453"/>
<path opacity="0.8" d="M346.21 218.3C340.82 218.3 335.37 220.09 332.28 223.59L336.56 225.84H332.79L330.51 221.28L328.51 216.83L344.77 217.01H346.19L346.21 218.3Z" fill="#B08685"/>
<path opacity="0.8" d="M336.28 230.59L336.06 234.01L333.58 272.15C333.52 272.02 332.25 269.37 330.36 265.46L330.99 265.24C330.614 264.898 330.217 264.581 329.8 264.29L316.86 237.5L313.38 230.3L336.28 230.59Z" fill="#6E5453"/>
<path opacity="0.8" d="M330.51 221.24L332.79 225.8H332.52L309.69 225.59L310.2 221L330.51 221.24Z" fill="#4D3A3A"/>
<path opacity="0.8" d="M324 371.05L325.79 270.16V267.16L326.95 266.64L330.34 265.46C332.23 269.37 333.5 272.02 333.56 272.15L327.13 371.05H324Z" fill="#204766"/>
<path opacity="0.8" d="M330.36 265.46L327 266.64L325.84 267.16C325.5 266.96 325.17 266.78 324.84 266.6C322.985 265.532 320.952 264.807 318.84 264.46V264.46V262.19V260.43C322.755 260.858 326.519 262.182 329.84 264.3L330.36 265.46Z" fill="#6E5453"/>
<path opacity="0.8" d="M328.55 216.79L330.51 221.24L310.2 221L307.14 216.54L307.13 216.53L304.28 212.39V212.24L328.5 212.56V216.77V216.79H328.55Z" fill="#B08685"/>
<path opacity="0.8" d="M329.8 264.29C326.479 262.172 322.715 260.848 318.8 260.42V258.82L320.11 258.23L323.87 256.03C320.58 253.46 315.26 251.67 310.06 251.15L310.19 243.7V240.15L311.57 239.52L316.06 237.63L316.85 237.5L329.8 264.29Z" fill="#4D3A3A"/>
<path opacity="0.8" d="M323.88 256L320.12 258.2L318.81 258.79C318.44 258.57 318.05 258.36 317.69 258.16C315.328 256.783 312.7 255.927 309.98 255.65L310.07 251.12C315.27 251.67 320.59 253.46 323.88 256Z" fill="#8C6B6A"/>
<path opacity="0.8" d="M318.77 264.46C320.882 264.807 322.915 265.532 324.77 266.6C325.11 266.78 325.44 266.96 325.77 267.16V270.16L324 371.05H316.86L318.77 264.46Z" fill="#8C6B6A"/>
<path opacity="0.8" d="M307.93 371.08L309.59 278.21L309.81 265.45L309.89 260.91L309.98 255.69C312.7 255.967 315.328 256.823 317.69 258.2C318.05 258.4 318.44 258.61 318.81 258.83V262.19V264.46L316.92 371.06L307.93 371.08Z" fill="#B08685"/>
<path opacity="0.8" d="M316.07 237.63C312.77 234.78 307.13 232.77 301.55 232.12V230.12H301.82L313.34 230.27L316.82 237.47L316.07 237.63Z" fill="#6E5453"/>
<path opacity="0.8" d="M304.28 216.69L309.51 225.59L309.56 225.67L309.63 225.8C309.58 225.724 309.527 225.651 309.47 225.58C306.03 220.87 296.63 217.72 288.47 217.72V216.33L304.22 216.51L304.28 216.69Z" fill="#B08685"/>
<path opacity="0.8" d="M309.66 225.85L303.03 225.73L307.51 223.73C307.51 223.73 309.34 225.51 309.51 225.62C309.567 225.691 309.62 225.764 309.67 225.84L309.66 225.85Z" fill="#B08685"/>
<path opacity="0.8" d="M307.13 216.53L307.14 216.54L310.2 221L309.69 225.59L309.56 225.67L309.51 225.59L304.28 216.69V216.51V216.5V212.39L307.13 216.53Z" fill="#8C6B6A"/>
<path opacity="0.8" d="M301.55 232.12C307.13 232.77 312.77 234.78 316.07 237.63L311.58 239.52L310.2 240.15L309.01 239.49C306.687 238.147 304.127 237.264 301.47 236.89L301.55 232.12Z" fill="#B08685"/>
<path opacity="0.8" d="M301.47 236.89C304.127 237.264 306.687 238.147 309.01 239.49L310.2 240.15V243.7L310.07 251.15L309.98 255.68L309.89 260.9L309.81 265.44L309.59 278.2L307.93 371.07H299.08L301 266L301.16 257.09L301.26 251.79L301.47 236.89Z" fill="#E6AFAD"/>
<path opacity="0.8" d="M272.74 371.13L282.06 230.37L282.4 225.37H282.7L282.75 224.77C289.29 221.77 294.42 222.49 300.34 225.68L301.59 226.38V230.15V232.15L301.51 236.92L301.25 251.75L301.15 257.05L300.99 265.96L299.12 371.09H283.15L272.74 371.13Z" fill="#F1DEE0"/>
<path opacity="0.8" d="M288.52 217.72C296.63 217.72 306.03 220.87 309.52 225.58C309.39 225.47 307.59 223.69 307.52 223.69L303.04 225.69L301.6 226.34L300.35 225.64C294.43 222.45 289.35 221.71 282.76 224.73L282.46 224.58L279.53 223.11L276.84 221.5C279.17 218.87 283.61 217.72 288.52 217.72Z" fill="#E6AFAD"/>
<path opacity="0.8" d="M842.65 189.02L344.83 180.67L277.9 179.55L277.85 189.7L268.21 174.71L344.84 175.83L842.03 183.08L932.46 184.4L920.87 194L920.08 190.32L842.65 189.02Z" fill="#B08685"/>
<path opacity="0.8" d="M282.4 225.37L282.06 230.37L278.98 225.31L282.4 225.37Z" fill="#6E5453"/>
<path opacity="0.8" d="M279 225.31L273.62 216.16L288.55 216.33V217.72C283.64 217.72 279.2 218.87 276.86 221.54L279.55 225.31H279Z" fill="#B08685"/>
<path opacity="0.8" d="M279.52 225.31L276.83 221.54L279.52 223.15L282.45 224.62L282.75 224.77L282.7 225.37H282.4L278.98 225.31H279.52Z" fill="#B08685"/>
</g>
<path opacity="0.8" d="M327.7 471.88C327.63 483.982 323.328 495.677 315.54 504.94H209.54C201.748 495.679 197.446 483.982 197.38 471.88C197.38 440.49 226.54 415.05 262.51 415.05C298.48 415.05 327.7 440.49 327.7 471.88Z" fill="#25695D"/>
<path opacity="0.8" d="M1002.71 473.49C1002.8 485.076 999.836 496.482 994.12 506.56H919.25C913.533 496.482 910.571 485.076 910.66 473.49C910.66 442.11 931.27 416.67 956.66 416.67C982.05 416.67 1002.71 442.11 1002.71 473.49Z" fill="#25695D"/>
<path opacity="0.8" d="M416.55 503.33H307.87C303.69 498.444 301.37 492.239 301.32 485.81C301.32 473.02 310.66 462.05 323.96 457.41C328.32 438.55 342.46 424.74 359.23 424.74C371.99 424.74 383.23 432.74 389.79 444.88C393.175 443.777 396.793 443.594 400.272 444.35C403.751 445.105 406.967 446.772 409.59 449.18C421.47 459.7 424.15 482.87 416.55 503.33Z" fill="#328C7C"/>
<path opacity="0.8" d="M1040 430.64C1036 441.33 1030.13 449.7 1024.18 453.96C1023.54 456.03 1022.84 457.96 1022.1 459.73H986.76C983.971 457.491 981.732 454.644 980.213 451.406C978.695 448.168 977.938 444.626 978 441.05C978 430.89 984 422.31 992.17 419.47C992.32 391.39 1000.43 368.76 1010.4 368.76C1016.81 368.76 1022.4 378.12 1025.7 392.27C1029.56 389.77 1033.4 389.03 1036.7 390.56C1045.18 394.56 1046.67 412.5 1040 430.64Z" fill="#2F8273"/>
<path opacity="0.8" d="M209 479.72C207.186 483.836 204.996 487.776 202.46 491.49H-16.65C-17.8316 487.091 -18.4267 482.555 -18.42 478C-18.42 447.38 8.20998 422.56 41.06 422.56C43.18 422.56 45.28 422.66 47.34 422.86C53.4271 414.046 61.4418 406.735 70.7758 401.481C80.1099 396.226 90.5181 393.167 101.211 392.535C111.903 391.902 122.6 393.714 132.488 397.832C142.376 401.949 151.197 408.265 158.28 416.3C169.67 409.3 182.42 407.3 193.47 412.22C214.41 421.51 221.35 451.71 209 479.72Z" fill="#328C7C"/>
<path d="M338.41 459.95V474.49H234.52V438.96L338.41 459.95Z" fill="#2C677A"/>
<path d="M332.49 486.33L318.81 645.17L211.37 641.89L223.75 491.17L332.49 486.33Z" fill="#285C6E"/>
<path d="M234.52 474.49V475.02L234.16 475.04L234.52 474.49Z" fill="#37829A"/>
<path d="M234.52 438.96V474.49L234.16 475.04L234.13 475.08L-0.179993 480.45V442.19L234.52 438.96Z" fill="#37829A"/>
<path d="M234.52 475.02V474.49H338.41L332.49 486.33L223.75 491.17L234.13 475.08L234.16 475.04L234.52 475.02Z" fill="#204B59"/>
<path d="M234.13 475.08L223.75 491.17L-0.709991 497.63L-0.179991 480.94V480.45L234.13 475.08Z" fill="#265869"/>
<path d="M223.75 491.17L211.37 641.89H-0.709991V497.63L223.75 491.17Z" fill="#2C677A"/>
<path d="M1034.47 443.85V447.94L1034.19 447.95L425.42 454.08H425.39V452.46V448.96L431.51 448.89L449.35 448.7L468.4 448.28L483.53 448.16V447.94L861.41 443.85H890.74H892.63H1034.47Z" fill="#17404F"/>
<path d="M1034.19 447.95L1034.2 448.7L1034.12 459.49L414.69 469.15H414.63L415.14 464.34L416.25 454.08H425.39H425.42L1034.19 447.95Z" fill="#17404F"/>
<path d="M1034.12 459.49L1033.96 480.2L393.63 491.22L394.23 486.33L396.34 469.15H414.63H414.69L1034.12 459.49Z" fill="#17404F"/>
<path d="M1033.96 480.2L1033.68 518.72L308.05 534.28L351.65 512.34L393.63 491.22L1033.96 480.2Z" fill="#17404F"/>
<path d="M1033.68 518.72L1033.57 534.34L308.05 552.59V534.28L1033.68 518.72Z" fill="#17404F"/>
<path d="M1033.57 534.34L1033.52 541.34L298.36 561.2L308.05 552.59L1033.57 534.34Z" fill="#17404F"/>
<path d="M1033.52 541.34L1033.38 561.26L298.36 580.04V561.2L1033.52 541.34Z" fill="#17404F"/>
<path d="M1033.38 561.26L1033.31 570.95L289.75 589.73L298.36 580.04L1033.38 561.26Z" fill="#17404F"/>
<path d="M1033.31 570.95L1033.17 589.8L289.75 609.64V589.73L1033.31 570.95Z" fill="#17404F"/>
<path d="M884.55 374.41L882.4 378.18H859.25L858.72 373.87L884.55 374.41Z" fill="#17404F"/>
<path d="M884.55 381.95H858.72L859.25 378.18H882.4L884.55 381.95Z" fill="#17404F"/>
<path d="M882.94 385.72L886.17 433.62L892.63 439.01V443.85H890.74H861.41L858.72 385.72H882.94Z" fill="#17404F"/>
<path d="M858.72 385.72V381.95H884.55L882.94 385.72H858.72Z" fill="#17404F"/>
<path d="M855 344.81L858.72 369H863V344.81H855ZM870.05 369L871.36 344.78H868.36V369H870.05ZM854.22 371.51L850.74 342.17L852.74 339.99L849.46 337.73L852.4 334.46L873.4 334.74L876.75 338.11L873.75 340.28L875.69 341.96L872.69 370.66L884.62 374.38L858.79 373.84L843.17 378.69L854.22 371.51Z" fill="#17404F"/>
<path d="M858.72 373.87L859.25 378.18L845.8 381.95L843.11 378.72L858.72 373.87Z" fill="#17404F"/>
<path d="M858.72 385.72L861.41 443.85L816.11 395.48L816.19 395.41L848.03 388.15L858.72 385.72Z" fill="#17404F"/>
<path d="M843.19 385.72L845.8 381.95L859.25 378.18L858.72 381.95L843.19 385.72Z" fill="#17404F"/>
<path d="M843.19 385.72L858.72 381.95V385.72L848.03 388.15L816.19 395.41L816.11 395.48L816.01 395.38H803.38L843.19 385.72Z" fill="#17404F"/>
<path d="M803.38 395.38H816.01L816.11 395.48L861.41 443.85L483.53 447.94V442.24L480.57 439.28V439.01V395.38H803.38Z" fill="#17404F"/>
<path d="M483.53 442.24H449.08L452.04 439.28V439.01H480.57V439.28L483.53 442.24Z" fill="#17404F"/>
<path d="M480.84 378.18L482.45 381.95H450.15L451.77 378.18H480.84Z" fill="#17404F"/>
<path d="M482.45 381.95L480.57 385.72H452.04L450.15 381.95H482.45Z" fill="#17404F"/>
<path d="M481.91 373.87L480.84 378.18H451.77L450.69 373.87H481.91Z" fill="#17404F"/>
<path d="M452.04 439.01V385.72H480.57V395.38V439.01H452.04Z" fill="#17404F"/>
<path d="M449.08 448.43V442.24H483.53V447.94L468.4 448.28L449.08 448.43Z" fill="#17404F"/>
<path d="M469 344.81V369H471.7L473.85 344.78L469 344.81ZM458.78 344.81L460.92 369H463.61V344.81H458.78ZM452.32 338.35L455.55 335.12H477.08L480.31 338.35L477.08 340.5L479.23 342.65L474.93 369.57L481.93 373.87H450.69L457.69 369.57L453.38 342.65L455.54 340.5L452.32 338.35Z" fill="#17404F"/>
<path d="M425.39 448.96V452.46H414.63H411.4V446.54H425.39V448.96Z" fill="#17404F"/>
<path d="M414.63 452.46H425.39V454.08H416.25L415.14 464.34L414.8 464.31L414.63 452.46Z" fill="#17404F"/>
<path d="M415.14 464.34L414.63 469.15H396.34L394.23 486.33H394.17L393.63 464.31H396.33H414.8L415.14 464.34Z" fill="#17404F"/>
<path d="M414.63 452.46L414.8 464.31H396.33V452.46H411.4H414.63Z" fill="#17404F"/>
<path d="M351.65 504.14L394.17 486.36L394.23 486.33L393.63 491.22L351.65 512.34V504.14Z" fill="#17404F"/>
<path d="M394.17 486.33V486.36L351.65 504.14H310.2L362.95 486.38L394.17 486.33Z" fill="#17404F"/>
<path d="M393.63 464.31L394.17 486.33L362.95 486.38V464.31H393.63Z" fill="#17404F"/>
<path d="M351.65 504.14V512.34L310.2 512.75V504.14H351.65Z" fill="#17404F"/>
<g opacity="0.8">
<path opacity="0.8" d="M1034.29 444.12V448.21H1034.01L425.24 454.34H425.21V452.73V449.23L431.33 449.16L449.17 448.96L468.22 448.54L483.35 448.42V448.21L861.23 444.12H890.56H892.45H1034.29Z" fill="#2B608A"/>
<path opacity="0.8" d="M1034.01 448.21L1034.02 448.96L1033.94 459.76L414.51 469.41H414.45L414.96 464.61L416.07 454.34H425.21H425.24L1034.01 448.21Z" fill="#3372A3"/>
<path opacity="0.8" d="M1033.94 459.76L1033.79 480.46L393.45 491.48L394.05 486.59L396.16 469.41H414.45H414.51L1033.94 459.76Z" fill="#2B608A"/>
<path opacity="0.8" d="M892.45 439.27V444.12H890.56H861.23L858.53 385.98H882.76L885.99 433.89L892.45 439.27Z" fill="#46468C"/>
<path opacity="0.8" d="M884.37 374.68L882.22 378.44H859.07L858.53 374.14L884.37 374.68Z" fill="#46468C"/>
<path opacity="0.8" d="M882.22 378.44L884.37 382.21H858.53L859.07 378.44H882.22Z" fill="#4E4E9C"/>
<path opacity="0.8" d="M884.37 382.21L882.76 385.98H858.53V382.21H884.37Z" fill="#424285"/>
<path opacity="0.8" d="M884.37 374.68L858.54 374.14L842.93 379L854 371.8L850.52 342.46L852.52 340.28L849.24 338L852.18 334.73L873.18 335.02L876.52 338.38L873.52 340.55L875.46 342.23L872.46 370.93L884.37 374.68ZM869.87 369.29L871.19 345.07H868.19V369.29H869.87ZM862.87 369.29V345.07H854.8L858.57 369.29H862.87Z" fill="#5353A6"/>
<path opacity="0.8" d="M858.53 385.98L861.23 444.12L815.93 395.74L816.01 395.67L847.85 388.41L858.53 385.98Z" fill="#4E4E9C"/>
<path opacity="0.8" d="M858.53 374.14L859.07 378.44L845.62 382.21L842.92 378.98L858.53 374.14Z" fill="#46468C"/>
<path opacity="0.8" d="M859.07 378.44L858.53 382.21L843.01 385.98L845.62 382.21L859.07 378.44Z" fill="#4E4E9C"/>
<path opacity="0.8" d="M816.01 395.67L815.93 395.74L815.83 395.64H803.21L843.01 385.98L858.53 382.21V385.98L847.85 388.41L816.01 395.67Z" fill="#46468C"/>
<path opacity="0.8" d="M1033.34 541.6L298.18 561.46L307.87 552.85L1033.39 534.6L1033.34 541.6Z" fill="#3B84BD"/>
<path opacity="0.8" d="M307.87 534.55L1033.51 518.98L1033.39 534.6L307.87 552.85V534.55Z" fill="#204766"/>
<path opacity="0.8" d="M1033.51 518.98L307.87 534.55L351.47 512.61L393.45 491.48L1033.79 480.46L1033.51 518.98Z" fill="#3B84BD"/>
<path opacity="0.8" d="M1032.99 590.06L289.57 609.91V589.99L1033.13 571.22L1032.99 590.06Z" fill="#204766"/>
<path opacity="0.8" d="M298.18 580.3L1033.2 561.53L1033.13 571.22L289.57 589.99L298.18 580.3Z" fill="#3B84BD"/>
<path opacity="0.8" d="M1033.2 561.53L298.18 580.3V561.46L1033.34 541.6L1033.2 561.53Z" fill="#204766"/>
<path opacity="0.8" d="M483.35 442.5V448.21L468.22 448.54L448.9 448.69V442.5H483.35Z" fill="#46468C"/>
<path opacity="0.8" d="M483.35 442.5H448.9L451.86 439.54V439.27H480.39V439.54L483.35 442.5Z" fill="#4E4E9C"/>
<path opacity="0.8" d="M480.66 378.44L482.27 382.21H449.98L451.59 378.44H480.66Z" fill="#4E4E9C"/>
<path opacity="0.8" d="M482.27 382.21L480.39 385.98H451.86L449.98 382.21H482.27Z" fill="#424285"/>
<path opacity="0.8" d="M481.73 374.14L480.66 378.44H451.59L450.51 374.14H481.73Z" fill="#46468C"/>
<path opacity="0.8" d="M481.73 374.14H450.51L457.51 369.83L453.2 342.92L455.36 340.76L452.13 338.61L455.36 335.38H476.89L480.12 338.61L476.89 340.76L479.04 342.92L474.74 369.83L481.73 374.14ZM471.51 369.29L473.66 345.07H468.82V369.29H471.51ZM463.43 369.29V345.07H458.59L460.74 369.29H463.43Z" fill="#5353A6"/>
<path opacity="0.8" d="M480.39 439.27V395.64H803.21H815.83L815.93 395.74L861.23 444.12L483.35 448.21V442.5L480.39 439.54V439.27Z" fill="#3372A3"/>
<path opacity="0.8" d="M480.39 395.64V439.27H451.86V385.98H480.39V395.64Z" fill="#46468C"/>
<path opacity="0.8" d="M425.21 449.23V452.73H414.45H411.22V446.81H425.21V449.23Z" fill="#2B608A"/>
<path opacity="0.8" d="M416.07 454.34L414.96 464.61L414.62 464.57L414.45 452.73H425.21V454.34H416.07Z" fill="#204766"/>
<path opacity="0.8" d="M414.96 464.61L414.45 469.41H396.16L394.05 486.59H393.99L393.45 464.57H396.15H414.62L414.96 464.61Z" fill="#204766"/>
<path opacity="0.8" d="M414.45 452.73L414.62 464.57H396.15V452.73H411.22H414.45Z" fill="#2B608A"/>
<path opacity="0.8" d="M394.05 486.59L393.45 491.48L351.47 512.61V504.4L393.99 486.62L394.05 486.59Z" fill="#295A82"/>
<path opacity="0.8" d="M393.99 486.59V486.62L351.47 504.4H310.02L362.77 486.64L393.99 486.59Z" fill="#3B84BD"/>
<path opacity="0.8" d="M393.45 464.57L393.99 486.59L362.77 486.64V464.57H393.45Z" fill="#2B608A"/>
<path opacity="0.8" d="M351.47 504.4V512.61L310.02 513.01V504.4H351.47Z" fill="#2B608A"/>
</g>
<path d="M330.23 512.55L331.57 496.94L309.93 496.87L304.55 515.17L330.23 512.55Z" fill="#285C6E"/>
<path d="M351.38 512.48L329.28 523.6L330.39 512.48H351.38Z" fill="#3B84BD"/>
<path d="M159.48 159.91L150.87 164.48L138.49 161.25L124.56 157.41L133.64 153.69L141 156.35L145.09 157.84L142.62 159.58L149.57 162.11L151.81 159.22L159.48 159.91Z" fill="#C7D9DF"/>
<path d="M156.52 153.18L151.81 159.22L147.95 158.88L145.09 157.84L151.67 153.18H156.52Z" fill="#A1D0DF"/>
<path d="M151.81 159.22L149.57 162.11L142.62 159.58L145.09 157.84L147.95 158.88L151.81 159.22Z" fill="#C7D9DF"/>
<path d="M142.52 148.33L141.45 150.49L135.48 152.93L133.64 153.69L124.56 157.41L114.37 154.61L128.99 152L131.24 151.59L134.45 151.02L142.52 148.33Z" fill="#A1D0DF"/>
<path d="M129 152L114.38 154.61L93.48 148.85C93.2075 148.771 92.9658 148.61 92.788 148.389C92.6101 148.168 92.5048 147.898 92.4862 147.615C92.4676 147.332 92.5367 147.05 92.6841 146.807C92.8316 146.565 93.0501 146.374 93.31 146.26L99.16 143.72C101.093 142.872 103.269 142.758 105.28 143.4L129 152Z" fill="#C7D9DF"/>
<path d="M124.56 157.41L124.1 157.6L113.91 154.69L114.37 154.61L124.56 157.41Z" fill="#C7D9DF"/>
<path d="M181.88 389.41L191.57 385.54C192.169 385.3 192.818 385.212 193.459 385.285C194.1 385.357 194.713 385.588 195.243 385.955C195.774 386.323 196.204 386.816 196.497 387.391C196.79 387.966 196.935 388.605 196.92 389.25L196.75 397" stroke="#17404F" stroke-miterlimit="10"/>
<path d="M260 388.4L250.34 384.54C249.743 384.3 249.095 384.212 248.455 384.284C247.815 384.355 247.203 384.585 246.673 384.952C246.144 385.319 245.714 385.811 245.422 386.385C245.13 386.959 244.985 387.596 245 388.24L245.16 395.97" stroke="#17404F" stroke-miterlimit="10"/>
<path d="M212.5 376.5C213.906 376.965 215.398 377.113 216.868 376.931C218.338 376.749 219.749 376.244 221 375.45L222.5 374.5" stroke="#17404F" stroke-miterlimit="10"/>
</g>
<defs>
<clipPath id="clip0">
<rect width="1024" height="576" fill="white"/>
</clipPath>
</defs>
</svg>
