<svg width="643" height="444" viewBox="0 0 643 444" fill="none" xmlns="http://www.w3.org/2000/svg">
<g clip-path="url(#clip0)">
<path opacity="0.1" d="M366.831 62.266C327.645 61.014 290.325 49.3321 254.687 36.5547C219.05 23.7773 183.752 9.6026 145.505 2.85619C120.905 -1.50355 92.7688 -2.11838 72.9521 10.0609C53.8861 21.7763 47.7104 42.0212 44.3985 60.768C41.904 74.8869 40.4388 89.7491 47.2684 102.968C52.0152 112.146 60.4311 119.859 66.2557 128.646C86.5205 159.237 72.1953 196.954 50.2412 226.818C39.9484 240.825 27.9905 254.206 20.0408 269.102C12.0911 283.998 8.41596 301.101 15.3727 316.316C22.2629 331.407 38.689 342.72 56.4835 350.685C92.6235 366.866 135.194 371.494 176.734 374.121C268.661 379.923 361.073 377.413 453.242 374.893C487.354 373.965 521.611 373.02 555.166 368.152C573.802 365.447 593.037 361.154 606.569 350.791C623.74 337.639 627.997 315.371 616.487 298.877C597.185 271.215 543.832 264.345 530.324 234.66C522.901 218.317 530.523 200.118 541.319 184.965C564.472 152.451 603.276 123.928 605.316 86.7699C606.721 61.2487 588.067 35.6884 559.222 23.6097C528.992 10.9496 487.063 12.5426 464.77 33.4917C441.793 55.0724 401.421 63.3783 366.831 62.266Z" fill="#6C63FF"/>
<path d="M157.123 69.018H0V214.069H157.123V69.018Z" fill="#E8E9ED"/>
<path d="M643 69.018H485.877V214.069H643V69.018Z" fill="#E8E9ED"/>
<path opacity="0.5" d="M88.0279 17.9029L86.4598 16.4217C86.4286 16.3895 86.3903 16.3639 86.3475 16.3465C86.3046 16.3291 86.2583 16.3205 86.2115 16.3211C86.1646 16.3197 86.118 16.328 86.0751 16.3454C86.0321 16.3628 85.9939 16.3889 85.9633 16.4217L75.1255 26.4826L71.1779 22.8439C71.1462 22.8124 71.1078 22.7873 71.065 22.7701C71.0223 22.753 70.9762 22.7441 70.9297 22.7441C70.8831 22.7441 70.837 22.753 70.7943 22.7701C70.7516 22.7873 70.7132 22.8124 70.6814 22.8439L69.1012 24.3027C69.0667 24.333 69.0393 24.3694 69.0206 24.4098C69.0019 24.4501 68.9922 24.4936 68.9922 24.5375C68.9922 24.5814 69.0019 24.6248 69.0206 24.6652C69.0393 24.7056 69.0667 24.742 69.1012 24.7722L74.0781 29.3612C74.3453 29.6343 74.7159 29.8024 75.1134 29.8307C75.5061 29.799 75.8734 29.6384 76.1487 29.3779V29.3779L88.0339 18.3724C88.0965 18.3078 88.1311 18.2242 88.1311 18.1376C88.1311 18.051 88.0965 17.9674 88.0339 17.9029H88.0279Z" fill="#3ACC6C"/>
<path opacity="0.5" d="M78.5585 8.31702C82.2546 8.31947 85.8355 9.50478 88.6911 11.671C91.5468 13.8373 93.5006 16.8505 94.2198 20.1975C94.9389 23.5444 94.3789 27.0179 92.6352 30.0264C90.8914 33.035 88.0718 35.3923 84.6565 36.697C81.2413 38.0017 77.4417 38.173 73.905 37.1817C70.3683 36.1904 67.3133 34.0978 65.2603 31.2604C63.2073 28.4231 62.2834 25.0164 62.6459 21.6207C63.0085 18.2251 64.635 15.0504 67.2485 12.6376C68.7307 11.2631 70.4935 10.1735 72.4348 9.43189C74.3762 8.69027 76.4575 8.31134 78.5585 8.31702ZM78.5585 6.01978C74.9023 6.01978 71.3282 7.02073 68.2883 8.89605C65.2483 10.7714 62.8791 13.4368 61.4802 16.5552C60.0813 19.6737 59.7156 23.1051 60.4294 26.4154C61.1431 29.7257 62.9042 32.7663 65.4899 35.1526C68.0757 37.5389 71.3699 39.1637 74.956 39.8215C78.5421 40.4793 82.2589 40.1406 85.6365 38.8481C89.014 37.5557 91.9005 35.3676 93.9309 32.5607C95.9613 29.7537 97.0444 26.4539 97.0432 23.0786C97.044 20.8378 96.5664 18.6187 95.6376 16.5483C94.7089 14.478 93.3473 12.5969 91.6306 11.0126C89.9139 9.42831 87.8758 8.1719 85.6328 7.31521C83.3898 6.45851 80.9859 6.01831 78.5585 6.01978V6.01978Z" fill="#6C63FF"/>
<path opacity="0.8" d="M209.381 65.5973L207.407 63.7304C207.368 63.691 207.32 63.6597 207.267 63.6385C207.214 63.6173 207.156 63.6067 207.098 63.6074C207.039 63.6052 206.98 63.615 206.926 63.6363C206.871 63.6575 206.823 63.6897 206.783 63.7304L193.142 76.4184L188.171 71.835C188.132 71.7962 188.084 71.7652 188.031 71.7441C187.978 71.7229 187.92 71.712 187.863 71.7121C187.804 71.7119 187.746 71.7227 187.692 71.7439C187.637 71.765 187.589 71.796 187.548 71.835L185.556 73.674C185.512 73.7116 185.478 73.7571 185.454 73.8075C185.43 73.858 185.418 73.9124 185.418 73.9674C185.418 74.0224 185.43 74.0768 185.454 74.1273C185.478 74.1778 185.512 74.2232 185.556 74.2608L191.816 80.0291C192.155 80.3722 192.623 80.5823 193.124 80.616C193.614 80.5772 194.073 80.3791 194.42 80.0571L209.375 66.173C209.444 66.0941 209.483 65.9954 209.483 65.8935C209.483 65.7916 209.444 65.6929 209.375 65.614L209.381 65.5973Z" fill="#3ACC6C"/>
<path opacity="0.8" d="M197.453 53.5241C202.11 53.5251 206.623 55.0167 210.223 57.7449C213.823 60.4731 216.286 64.269 217.194 68.486C218.102 72.7029 217.398 77.0801 215.202 80.8716C213.006 84.6632 209.454 87.6346 205.151 89.2796C200.848 90.9246 196.061 91.1414 191.604 89.8931C187.147 88.6449 183.297 86.0087 180.71 82.4338C178.122 78.8589 176.958 74.5664 177.414 70.2876C177.87 66.0089 179.92 62.0086 183.213 58.9682C185.078 57.2355 187.297 55.862 189.741 54.9275C192.186 53.9929 194.807 53.5159 197.453 53.5241V53.5241ZM197.453 50.6344C192.851 50.6344 188.353 51.8942 184.526 54.2544C180.7 56.6147 177.718 59.9694 175.956 63.8944C174.195 67.8194 173.735 72.1383 174.632 76.305C175.53 80.4718 177.746 84.2991 181 87.3032C184.254 90.3072 188.4 92.353 192.914 93.1818C197.427 94.0106 202.106 93.5853 206.357 91.9595C210.609 90.3337 214.243 87.5806 216.8 84.0482C219.356 80.5158 220.721 76.3628 220.721 72.1145C220.722 69.2935 220.121 66.5 218.952 63.8935C217.783 61.2871 216.069 58.9189 213.908 56.9241C211.747 54.9294 209.182 53.3472 206.358 52.268C203.535 51.1888 200.509 50.6337 197.453 50.6344V50.6344Z" fill="#6C63FF"/>
<path opacity="0.5" d="M564.435 8.31702C568.132 8.31947 571.712 9.50478 574.568 11.671C577.424 13.8373 579.378 16.8505 580.097 20.1975C580.816 23.5444 580.256 27.0179 578.512 30.0264C576.768 33.035 573.949 35.3923 570.533 36.697C567.118 38.0017 563.319 38.173 559.782 37.1817C556.245 36.1904 553.19 34.0978 551.137 31.2604C549.084 28.4231 548.16 25.0164 548.523 21.6207C548.885 18.2251 550.512 15.0504 553.125 12.6376C554.608 11.2631 556.37 10.1735 558.312 9.43189C560.253 8.69027 562.334 8.31134 564.435 8.31702V8.31702ZM564.435 6.01978C560.779 6.01978 557.205 7.02073 554.165 8.89605C551.125 10.7714 548.756 13.4368 547.357 16.5552C545.958 19.6737 545.593 23.1051 546.306 26.4154C547.02 29.7257 548.781 32.7663 551.367 35.1526C553.953 37.5389 557.247 39.1637 560.833 39.8215C564.419 40.4793 568.136 40.1406 571.513 38.8481C574.891 37.5557 577.777 35.3676 579.808 32.5607C581.838 29.7537 582.921 26.4539 582.92 23.0786C582.921 20.8378 582.443 18.6187 581.515 16.5483C580.586 14.478 579.224 12.5969 577.508 11.0126C575.791 9.42831 573.753 8.1719 571.51 7.31521C569.267 6.45851 566.863 6.01831 564.435 6.01978V6.01978Z" fill="#6C63FF"/>
<path opacity="0.8" d="M444.693 53.5241C449.352 53.5186 453.868 55.0048 457.473 57.7294C461.077 60.4539 463.547 64.2482 464.46 68.4654C465.373 72.6826 464.674 77.0617 462.481 80.8562C460.289 84.6507 456.738 87.6258 452.435 89.2742C448.133 90.9227 443.344 91.1425 438.885 89.8962C434.426 88.6499 430.574 86.0147 427.984 82.4397C425.395 78.8647 424.228 74.5712 424.684 70.2912C425.14 66.0111 427.189 62.0094 430.483 58.9682C432.349 57.237 434.569 55.8645 437.013 54.9301C439.457 53.9956 442.078 53.5178 444.723 53.5241H444.693ZM444.723 50.6344C440.122 50.6344 435.623 51.8942 431.797 54.2545C427.97 56.6147 424.988 59.9695 423.227 63.8944C421.466 67.8194 421.005 72.1383 421.903 76.3051C422.8 80.4718 425.017 84.2992 428.271 87.3032C431.525 90.3073 435.671 92.3531 440.184 93.1819C444.698 94.0107 449.376 93.5853 453.628 91.9595C457.879 90.3337 461.513 87.5806 464.07 84.0482C466.627 80.5158 467.991 76.3629 467.991 72.1145C467.992 69.2911 467.39 66.4953 466.219 63.8871C465.048 61.2789 463.331 58.9094 461.167 56.9143C459.003 54.9191 456.435 53.3375 453.608 52.26C450.781 51.1824 447.752 50.63 444.693 50.6344H444.723Z" fill="#6C63FF"/>
<path d="M320.489 87.6083C326.643 87.6121 332.605 89.5855 337.36 93.1923C342.115 96.799 345.369 101.816 346.566 107.389C347.764 112.962 346.832 118.745 343.928 123.755C341.025 128.764 336.33 132.689 330.644 134.862C324.957 137.034 318.631 137.319 312.742 135.669C306.853 134.018 301.767 130.534 298.348 125.81C294.93 121.085 293.392 115.413 293.995 109.759C294.599 104.105 297.307 98.8192 301.659 94.8019C304.126 92.5125 307.061 90.6979 310.293 89.4631C313.525 88.2283 316.991 87.5979 320.489 87.6083V87.6083ZM320.489 83.7852C314.404 83.7852 308.457 85.4508 303.398 88.5714C298.339 91.692 294.396 96.1274 292.067 101.317C289.739 106.506 289.129 112.216 290.316 117.725C291.503 123.234 294.433 128.295 298.736 132.267C303.038 136.238 308.52 138.943 314.487 140.039C320.455 141.135 326.64 140.572 332.262 138.423C337.883 136.273 342.687 132.633 346.068 127.963C349.448 123.293 351.252 117.802 351.252 112.185C351.253 108.455 350.458 104.762 348.912 101.316C347.367 97.87 345.101 94.7389 342.244 92.1016C339.387 89.4643 335.995 87.3724 332.262 85.9455C328.53 84.5185 324.529 83.7844 320.489 83.7852V83.7852Z" fill="#6C63FF"/>
<path d="M285.003 107.037H109.903V268.683H285.003V107.037Z" fill="#F3F5F7"/>
<path d="M532.243 107.037H357.144V268.683H532.243V107.037Z" fill="#F3F5F7"/>
<path opacity="0.1" d="M74.1025 94.7684H15.6997V100.76H74.1025V94.7684Z" fill="#17404F"/>
<path opacity="0.1" d="M572.555 94.7684H514.152V100.76H572.555V94.7684Z" fill="black"/>
<path d="M415.625 323.28C417.52 326.136 428.624 331.239 428.624 331.239C428.624 331.239 428.721 319.787 426.808 316.931C425.896 315.56 424.431 314.58 422.737 314.206C421.042 313.833 419.256 314.096 417.771 314.938C416.287 315.78 415.225 317.132 414.821 318.696C414.416 320.261 414.701 321.91 415.613 323.28H415.625Z" fill="#6C63FF"/>
<path opacity="0.1" d="M190.908 141.541H132.505V147.532H190.908V141.541Z" fill="black"/>
<path opacity="0.1" d="M274.994 194.209H240.126V200.201H274.994V194.209Z" fill="black"/>
<path opacity="0.1" d="M291.76 234.42H240.126V240.411H291.76V234.42Z" fill="black"/>
<path opacity="0.1" d="M190.908 162.657H132.505V168.649H190.908V162.657Z" fill="black"/>
<path opacity="0.1" d="M453.721 141.541H395.318V147.532H453.721V141.541Z" fill="black"/>
<path opacity="0.1" d="M453.721 162.657H395.318V168.649H453.721V162.657Z" fill="black"/>
<path d="M312.212 120.536L313.847 118.557C315.42 119.979 317.53 120.781 319.732 120.793C322.493 120.793 324.539 119.546 324.539 117.528C324.539 115.337 322.578 113.895 317.141 113.895V111.62C321.984 111.62 323.801 110.15 323.801 108.211C323.801 106.456 322.172 105.36 319.756 105.36C317.874 105.412 316.076 106.091 314.695 107.272L312.957 105.36C314.866 103.785 317.329 102.901 319.889 102.873C324.073 102.873 327.155 104.729 327.155 107.982C327.155 110.273 325.339 111.771 322.723 112.599V112.722C325.526 113.28 327.875 114.996 327.875 117.674C327.875 121.206 324.243 123.325 319.956 123.325C316.311 123.319 313.811 122.039 312.212 120.536Z" fill="#6C63FF"/>
<g opacity="0.8">
<path opacity="0.8" d="M446.625 69.0292C446.625 67.956 446.728 66.5866 446.788 65.5134H446.637C445.971 66.4636 445.214 67.4082 444.536 68.3529L439.692 74.0876H452.552V76.396H436.374V74.4397L446.031 62.702H449.585V81.365H446.625V69.0292Z" fill="#6C63FF"/>
</g>
<g opacity="0.5">
<path opacity="0.5" d="M558.145 28.9978L559.24 27.6172C560.3 28.576 561.723 29.1154 563.206 29.1208C565.156 29.1208 566.688 28.0476 566.688 26.287C566.688 24.5263 565.337 23.5761 563.333 23.5761C562.318 23.5683 561.324 23.8387 560.476 24.353L559.337 23.6767L559.797 17.0756H568.274V18.8922H561.795L561.438 22.5085C562.227 22.1779 563.085 22.01 563.951 22.0167C566.73 22.0167 568.994 23.3358 568.994 26.2534C568.994 29.1711 566.342 30.8759 563.479 30.8759C562.499 30.9024 561.524 30.7502 560.609 30.4279C559.693 30.1056 558.856 29.6196 558.145 28.9978V28.9978Z" fill="#6C63FF"/>
</g>
<path opacity="0.1" d="M426.638 158.359H210.192V358.175H426.638V158.359Z" fill="#6C63FF"/>
<path d="M433.904 148.857H217.458V348.673H433.904V148.857Z" fill="white"/>
<path opacity="0.5" d="M411.229 170.991H240.126V176.983H411.229V170.991Z" fill="#6C63FF"/>
<path opacity="0.1" d="M349.079 214.315H240.126V220.306H349.079V214.315Z" fill="black"/>
<path opacity="0.1" d="M345.84 254.53H240.126V260.522H345.84V254.53Z" fill="black"/>
<path opacity="0.1" d="M384.232 274.635H240.126V280.627H384.232V274.635Z" fill="black"/>
<path opacity="0.5" d="M379.939 214.846L379.195 214.136C379.162 214.107 379.118 214.092 379.073 214.091C379.03 214.091 378.989 214.107 378.958 214.136L373.794 218.943L371.911 217.204C371.877 217.177 371.834 217.161 371.79 217.16C371.747 217.161 371.706 217.177 371.675 217.204L370.918 217.903C370.902 217.918 370.889 217.935 370.88 217.954C370.871 217.973 370.867 217.994 370.867 218.015C370.867 218.036 370.871 218.056 370.88 218.075C370.889 218.095 370.902 218.112 370.918 218.127L373.291 220.312C373.42 220.442 373.598 220.521 373.788 220.536C373.975 220.521 374.149 220.443 374.278 220.318V220.318L379.939 215.069C379.967 215.037 379.982 214.998 379.982 214.957C379.982 214.917 379.967 214.877 379.939 214.846V214.846Z" fill="#3ACC6C"/>
<path opacity="0.5" d="M375.428 210.262C377.194 210.261 378.905 210.825 380.27 211.858C381.635 212.891 382.57 214.329 382.915 215.927C383.261 217.525 382.995 219.185 382.163 220.622C381.332 222.06 379.986 223.186 378.356 223.811C376.725 224.435 374.91 224.517 373.221 224.045C371.532 223.572 370.072 222.573 369.091 221.218C368.11 219.864 367.669 218.237 367.842 216.615C368.015 214.993 368.791 213.477 370.04 212.325C370.745 211.669 371.585 211.149 372.51 210.795C373.435 210.441 374.427 210.26 375.428 210.262V210.262ZM375.428 209.172C373.685 209.171 371.981 209.647 370.532 210.541C369.082 211.434 367.952 212.704 367.285 214.19C366.617 215.676 366.442 217.312 366.782 218.89C367.121 220.468 367.961 221.918 369.193 223.055C370.425 224.193 371.996 224.968 373.705 225.281C375.415 225.595 377.186 225.434 378.796 224.817C380.406 224.201 381.782 223.158 382.75 221.82C383.717 220.481 384.233 218.908 384.232 217.299C384.229 215.146 383.3 213.082 381.649 211.56C379.998 210.038 377.761 209.183 375.428 209.183V209.172Z" fill="#3ACC6C"/>
<path opacity="0.5" d="M379.939 255.056L379.195 254.352C379.179 254.337 379.16 254.325 379.139 254.317C379.118 254.309 379.096 254.306 379.073 254.307C379.052 254.306 379.03 254.309 379.01 254.317C378.991 254.325 378.973 254.337 378.958 254.352L373.794 259.153L371.911 257.42C371.895 257.405 371.877 257.392 371.856 257.384C371.835 257.375 371.813 257.37 371.79 257.37C371.768 257.37 371.746 257.375 371.726 257.384C371.707 257.392 371.689 257.405 371.675 257.42L370.918 258.113C370.902 258.128 370.889 258.145 370.88 258.164C370.871 258.184 370.867 258.204 370.867 258.225C370.867 258.246 370.871 258.266 370.88 258.286C370.889 258.305 370.902 258.322 370.918 258.337L373.291 260.528C373.42 260.657 373.598 260.737 373.788 260.751C373.974 260.734 374.148 260.657 374.278 260.533V260.533L379.939 255.279C379.967 255.248 379.982 255.208 379.982 255.168C379.982 255.127 379.967 255.088 379.939 255.056V255.056Z" fill="#3ACC6C"/>
<path opacity="0.5" d="M375.428 250.506C377.194 250.505 378.905 251.069 380.27 252.102C381.635 253.135 382.57 254.573 382.915 256.171C383.261 257.769 382.995 259.428 382.163 260.866C381.332 262.303 379.986 263.43 378.356 264.054C376.725 264.678 374.91 264.761 373.221 264.288C371.532 263.816 370.072 262.817 369.091 261.462C368.11 260.107 367.669 258.48 367.842 256.859C368.015 255.237 368.791 253.721 370.04 252.568C370.745 251.913 371.585 251.393 372.51 251.039C373.435 250.685 374.427 250.504 375.428 250.506V250.506ZM375.428 249.388C373.686 249.387 371.982 249.863 370.532 250.756C369.083 251.649 367.953 252.919 367.285 254.405C366.617 255.891 366.442 257.526 366.781 259.104C367.121 260.682 367.959 262.131 369.191 263.269C370.423 264.407 371.992 265.182 373.701 265.497C375.41 265.811 377.182 265.65 378.792 265.035C380.402 264.419 381.778 263.377 382.747 262.039C383.715 260.702 384.232 259.129 384.232 257.521C384.233 256.453 384.005 255.396 383.563 254.409C383.121 253.422 382.473 252.526 381.655 251.77C380.838 251.015 379.867 250.416 378.799 250.007C377.73 249.598 376.585 249.388 375.428 249.388V249.388Z" fill="#3ACC6C"/>
<path opacity="0.1" d="M310.305 444C334.184 444 353.541 441.002 353.541 437.304C353.541 433.606 334.184 430.608 310.305 430.608C286.427 430.608 267.069 433.606 267.069 437.304C267.069 441.002 286.427 444 310.305 444Z" fill="#6C63FF"/>
<g opacity="0.1">
<path opacity="0.1" d="M324.812 434.705L325.314 434.403C321.851 439.221 316.717 436.996 315.118 436.136L315.367 433.112C315.367 433.112 321.96 434.822 325.32 432.659C325.054 433.838 324.812 434.705 324.812 434.705Z" fill="url(#paint0_linear)"/>
</g>
<g opacity="0.1">
<path opacity="0.1" d="M324.812 263.854C324.812 263.854 322.826 271.338 324.315 273.059C325.805 274.781 324.812 263.854 324.812 263.854Z" fill="url(#paint1_linear)"/>
</g>
<g opacity="0.1">
<path opacity="0.1" d="M287.352 257.728C287.352 257.728 289.168 260.522 288.073 263.395C286.977 266.268 287.352 257.728 287.352 257.728Z" fill="url(#paint2_linear)"/>
</g>
<g opacity="0.1">
<path opacity="0.1" d="M283.356 276.346C283.356 276.346 285.511 277.413 285.778 278.978C286.044 280.543 283.356 276.346 283.356 276.346Z" fill="url(#paint3_linear)"/>
</g>
<g opacity="0.1">
<path opacity="0.1" d="M356.308 259.958C354.043 265.217 351.113 267.291 351.113 267.291H349.484C350.332 265.206 352.124 260.925 352.827 259.941C353.529 258.957 347.492 256.677 343.981 255.419C344.52 255.369 345.095 254.625 345.095 254.625C345.095 254.625 358.572 254.692 356.308 259.958Z" fill="url(#paint4_linear)"/>
</g>
<path d="M316.934 288.814C316.934 288.814 313.371 287.858 312.607 288.899C311.842 289.939 313.648 297.482 313.648 297.482L321.5 297.915L318.76 291.635L316.934 288.814Z" fill="#2F2E41"/>
<path d="M288.494 350.456C288.494 350.456 296.06 364.295 290.233 363.86C284.406 363.425 282.145 350.456 282.145 350.456H288.494Z" fill="#A0616A"/>
<path d="M337.007 348.46C337.007 348.46 333.729 364.32 339.188 362.626C344.647 360.932 343.091 347.102 343.091 347.102L337.007 348.46Z" fill="#A0616A"/>
<path d="M315.115 285.401C315.115 285.401 315.033 292.468 318.067 292.836C321.1 293.204 316.345 296.958 316.345 296.958L310.934 297.915L303.146 297.4L299.703 293.425C299.703 293.425 305.77 290.848 303.146 282.824L315.115 285.401Z" fill="#A0616A"/>
<path opacity="0.1" d="M315.115 285.401C315.115 285.401 315.033 292.468 318.067 292.836C321.1 293.204 316.345 296.958 316.345 296.958L310.934 297.915L303.146 297.4L299.703 293.425C299.703 293.425 305.77 290.848 303.146 282.824L315.115 285.401Z" fill="black"/>
<path d="M329.757 345.438C329.757 345.438 333.71 352.845 330.599 376.091C330.599 376.091 331.524 384.304 330.767 385.844C330.01 387.384 323.786 408.283 323.786 408.283C323.786 408.283 315.796 409.823 314.703 405.204C314.703 405.204 315.796 398.604 315.712 397.577C315.628 396.55 317.478 385.331 317.478 385.331L313.694 363.625L310.834 383.204C310.834 383.204 310.834 388.851 309.909 390.097C308.984 391.344 309.909 416.423 309.909 416.423C309.909 416.423 312.516 420.237 308.563 420.31C304.611 420.383 301.078 420.237 300.742 417.817C300.405 415.397 300.237 412.977 299.396 411.51C298.555 410.043 297.462 393.251 297.714 387.384C297.966 381.517 292.163 351.378 294.013 348.225C295.864 345.072 329.757 345.438 329.757 345.438Z" fill="#2F2E41"/>
<path d="M311.207 287.854C316.892 287.854 321.5 283.976 321.5 279.191C321.5 274.406 316.892 270.527 311.207 270.527C305.523 270.527 300.914 274.406 300.914 279.191C300.914 283.976 305.523 287.854 311.207 287.854Z" fill="#A0616A"/>
<path d="M300.701 293.717C300.701 293.717 306.866 297.702 315.817 294.529C315.817 294.529 318.773 293.275 318.52 291.356C318.267 289.438 324.685 306.777 324.685 306.777L331.187 336.954L330.85 349.276C330.85 349.276 327.978 348.021 319.027 350.825C310.075 353.629 295.465 347.652 295.465 347.652L295.972 316L296.478 297.554L297.83 293.496C297.83 293.496 298.505 292.389 300.701 293.717Z" fill="#F2F2F2"/>
<path d="M316.051 288.42C316.051 288.42 317.529 288.208 318.951 290.205C320.374 292.202 323.72 293.459 323.72 293.459C323.72 293.459 331.837 293.903 333.008 297.75C334.179 301.596 337.108 306.848 338.53 316.537C339.953 326.227 342.797 341.687 343.216 342.944C343.634 344.202 342.63 348.048 343.802 349.231C344.973 350.415 335.518 350.415 335.518 350.415C335.518 350.415 334.681 344.35 334.096 344.35C333.51 344.35 333.677 348.418 334.263 351.377C334.849 354.335 329.996 351.377 329.996 351.377C329.996 351.377 326.231 337.84 322.633 325.636C319.035 313.431 316.943 306.7 317.613 303.963C318.282 301.226 320.123 293.385 318.784 292.646C317.445 291.906 316.051 288.42 316.051 288.42Z" fill="#2F2E41"/>
<path d="M302.937 288.413C302.937 288.413 300.763 289.464 295.272 292.936C289.781 296.408 286.037 299.067 286.037 299.067C286.037 299.067 283.874 300.545 282.543 309.335C281.212 318.126 278.216 340.879 279.381 343.76C280.546 346.641 280.962 348.34 280.546 350.039C280.13 351.738 289.282 351.664 289.448 351.295C289.615 350.926 289.199 344.203 289.615 344.056C290.031 343.908 292.277 348.045 292.693 351.517C293.109 354.989 297.935 357.722 299.016 357.722C300.098 357.722 305.672 337.702 305.755 324.036C305.839 310.37 303.925 298.846 302.511 297.22C301.096 295.595 302.937 288.413 302.937 288.413Z" fill="#2F2E41"/>
<path d="M318.458 408.715C318.458 408.715 319.11 407.049 321.393 407.579C323.675 408.109 325.223 406.216 325.223 406.216C325.223 406.216 326.446 406.065 325.631 407.503C324.816 408.942 324.164 409.926 324.164 409.926C324.164 409.926 329.054 420.299 325.875 422.797C322.697 425.295 319.029 423.781 319.029 423.781C319.029 423.781 315.443 421.434 315.606 415.226C315.606 415.226 315.443 413.257 313.487 410.078C311.53 406.898 310.063 402.052 312.427 401.144C314.791 400.235 315.399 400.201 315.399 400.201C315.399 400.201 314.293 404.901 317.15 406.543L318.458 408.715Z" fill="#3F3D56"/>
<path d="M302.777 420.298C302.777 420.298 300.745 417.036 304.132 416.674C307.519 416.312 311.16 416.094 310.991 417.616C310.822 419.138 310.398 421.458 310.398 421.458L310.991 423.125C310.991 423.125 311.16 427.256 311.753 427.764C312.346 428.271 315.563 432.62 308.705 432.62C301.846 432.62 299.814 431.968 300.406 430.59C300.999 429.213 301.168 422.4 301.168 422.4L302.777 420.298Z" fill="#3F3D56"/>
<path d="M308.082 272.06C308.082 272.06 312.793 273.147 315.233 273.582C317.673 274.016 317.421 272.784 317.421 272.784C317.421 272.784 320.618 273.147 320.45 272.857C320.282 272.567 321.796 271.045 320.029 269.306C318.262 267.566 318.767 266.262 318.767 266.262H317.253L316.832 265.755H314.476C314.476 265.755 312.709 265.175 308.082 265.755C303.454 266.334 297.144 266.479 296.639 268.871C296.134 271.262 293.526 274.234 294.451 275.611C295.377 276.988 300.677 282.641 301.182 285.032C301.687 287.424 304.044 287.955 303.959 286.458C303.875 284.96 301.519 279.742 303.538 279.524C305.557 279.307 309.007 274.886 308.082 272.06Z" fill="#2F2E41"/>
</g>
<defs>
<linearGradient id="paint0_linear" x1="6414.69" y1="4395.49" x2="6414.69" y2="4355.21" gradientUnits="userSpaceOnUse">
<stop stop-color="#808080" stop-opacity="0.25"/>
<stop offset="0.54" stop-color="#808080" stop-opacity="0.12"/>
<stop offset="1" stop-color="#808080" stop-opacity="0.1"/>
</linearGradient>
<linearGradient id="paint1_linear" x1="1155.24" y1="5350.07" x2="1155.24" y2="5192.32" gradientUnits="userSpaceOnUse">
<stop stop-color="#808080" stop-opacity="0.25"/>
<stop offset="0.54" stop-color="#808080" stop-opacity="0.12"/>
<stop offset="1" stop-color="#808080" stop-opacity="0.1"/>
</linearGradient>
<linearGradient id="paint2_linear" x1="904.708" y1="3544.16" x2="904.708" y2="3474.01" gradientUnits="userSpaceOnUse">
<stop stop-color="#808080" stop-opacity="0.25"/>
<stop offset="0.54" stop-color="#808080" stop-opacity="0.12"/>
<stop offset="1" stop-color="#808080" stop-opacity="0.1"/>
</linearGradient>
<linearGradient id="paint3_linear" x1="1598.89" y1="1924.19" x2="1598.89" y2="1908.27" gradientUnits="userSpaceOnUse">
<stop stop-color="#808080" stop-opacity="0.25"/>
<stop offset="0.54" stop-color="#808080" stop-opacity="0.12"/>
<stop offset="1" stop-color="#808080" stop-opacity="0.1"/>
</linearGradient>
<linearGradient id="paint4_linear" x1="8492.15" y1="6980.81" x2="8492.15" y2="6693.81" gradientUnits="userSpaceOnUse">
<stop stop-color="#808080" stop-opacity="0.25"/>
<stop offset="0.54" stop-color="#808080" stop-opacity="0.12"/>
<stop offset="1" stop-color="#808080" stop-opacity="0.1"/>
</linearGradient>
<clipPath id="clip0">
<rect width="643" height="444" fill="white"/>
</clipPath>
</defs>
</svg>
